<?xml version="1.0" encoding="utf-8" standalone="no"?>
<!DOCTYPE svg PUBLIC "-//W3C//DTD SVG 1.1//EN"
  "http://www.w3.org/Graphics/SVG/1.1/DTD/svg11.dtd">
<svg height="288.991033pt" version="1.1" viewBox="0 0 469.33875 288.991033" width="469.33875pt" xmlns="http://www.w3.org/2000/svg" xmlns:xlink="http://www.w3.org/1999/xlink">
 <metadata>
  <rdf:RDF xmlns:cc="http://creativecommons.org/ns#" xmlns:dc="http://purl.org/dc/elements/1.1/" xmlns:rdf="http://www.w3.org/1999/02/22-rdf-syntax-ns#">
   <cc:Work>
    <dc:type rdf:resource="http://purl.org/dc/dcmitype/StillImage"/>
    <dc:date>2021-08-09T22:51:45.765749</dc:date>
    <dc:format>image/svg+xml</dc:format>
    <dc:creator>
     <cc:Agent>
      <dc:title>Matplotlib v3.4.2, https://matplotlib.org/</dc:title>
     </cc:Agent>
    </dc:creator>
   </cc:Work>
  </rdf:RDF>
 </metadata>
 <defs>
  <style type="text/css">*{stroke-linecap:butt;stroke-linejoin:round;}</style>
 </defs>
 <g id="figure_1">
  <g id="patch_1">
   <path d="M 0 288.991033 
L 469.33875 288.991033 
L 469.33875 0 
L 0 0 
z
" style="fill:none;"/>
  </g>
  <g id="axes_1">
   <g id="patch_2">
    <path d="M 72.669375 231.84 
L 407.469375 231.84 
L 407.469375 36 
L 72.669375 36 
z
" style="fill:#ffffff;"/>
   </g>
   <g id="matplotlib.axis_1">
    <g id="xtick_1">
     <g id="line2d_1">
      <defs>
       <path d="M 0 0 
L 0 3.5 
" id="m04732726bc" style="stroke:#000000;stroke-width:0.8;"/>
      </defs>
      <g>
       <use style="stroke:#000000;stroke-width:0.8;" x="97.08351" xlink:href="#m04732726bc" y="231.84"/>
      </g>
     </g>
     <g id="text_1">
      <!-- 2018-01 -->
      <g transform="translate(59.85869 266.311846)rotate(-30)scale(0.1 -0.1)">
       <defs>
        <path d="M 1228 531 
L 3431 531 
L 3431 0 
L 469 0 
L 469 531 
Q 828 903 1448 1529 
Q 2069 2156 2228 2338 
Q 2531 2678 2651 2914 
Q 2772 3150 2772 3378 
Q 2772 3750 2511 3984 
Q 2250 4219 1831 4219 
Q 1534 4219 1204 4116 
Q 875 4013 500 3803 
L 500 4441 
Q 881 4594 1212 4672 
Q 1544 4750 1819 4750 
Q 2544 4750 2975 4387 
Q 3406 4025 3406 3419 
Q 3406 3131 3298 2873 
Q 3191 2616 2906 2266 
Q 2828 2175 2409 1742 
Q 1991 1309 1228 531 
z
" id="DejaVuSans-32" transform="scale(0.015625)"/>
        <path d="M 2034 4250 
Q 1547 4250 1301 3770 
Q 1056 3291 1056 2328 
Q 1056 1369 1301 889 
Q 1547 409 2034 409 
Q 2525 409 2770 889 
Q 3016 1369 3016 2328 
Q 3016 3291 2770 3770 
Q 2525 4250 2034 4250 
z
M 2034 4750 
Q 2819 4750 3233 4129 
Q 3647 3509 3647 2328 
Q 3647 1150 3233 529 
Q 2819 -91 2034 -91 
Q 1250 -91 836 529 
Q 422 1150 422 2328 
Q 422 3509 836 4129 
Q 1250 4750 2034 4750 
z
" id="DejaVuSans-30" transform="scale(0.015625)"/>
        <path d="M 794 531 
L 1825 531 
L 1825 4091 
L 703 3866 
L 703 4441 
L 1819 4666 
L 2450 4666 
L 2450 531 
L 3481 531 
L 3481 0 
L 794 0 
L 794 531 
z
" id="DejaVuSans-31" transform="scale(0.015625)"/>
        <path d="M 2034 2216 
Q 1584 2216 1326 1975 
Q 1069 1734 1069 1313 
Q 1069 891 1326 650 
Q 1584 409 2034 409 
Q 2484 409 2743 651 
Q 3003 894 3003 1313 
Q 3003 1734 2745 1975 
Q 2488 2216 2034 2216 
z
M 1403 2484 
Q 997 2584 770 2862 
Q 544 3141 544 3541 
Q 544 4100 942 4425 
Q 1341 4750 2034 4750 
Q 2731 4750 3128 4425 
Q 3525 4100 3525 3541 
Q 3525 3141 3298 2862 
Q 3072 2584 2669 2484 
Q 3125 2378 3379 2068 
Q 3634 1759 3634 1313 
Q 3634 634 3220 271 
Q 2806 -91 2034 -91 
Q 1263 -91 848 271 
Q 434 634 434 1313 
Q 434 1759 690 2068 
Q 947 2378 1403 2484 
z
M 1172 3481 
Q 1172 3119 1398 2916 
Q 1625 2713 2034 2713 
Q 2441 2713 2670 2916 
Q 2900 3119 2900 3481 
Q 2900 3844 2670 4047 
Q 2441 4250 2034 4250 
Q 1625 4250 1398 4047 
Q 1172 3844 1172 3481 
z
" id="DejaVuSans-38" transform="scale(0.015625)"/>
        <path d="M 313 2009 
L 1997 2009 
L 1997 1497 
L 313 1497 
L 313 2009 
z
" id="DejaVuSans-2d" transform="scale(0.015625)"/>
       </defs>
       <use xlink:href="#DejaVuSans-32"/>
       <use x="63.623047" xlink:href="#DejaVuSans-30"/>
       <use x="127.246094" xlink:href="#DejaVuSans-31"/>
       <use x="190.869141" xlink:href="#DejaVuSans-38"/>
       <use x="254.492188" xlink:href="#DejaVuSans-2d"/>
       <use x="290.576172" xlink:href="#DejaVuSans-30"/>
       <use x="354.199219" xlink:href="#DejaVuSans-31"/>
      </g>
     </g>
    </g>
    <g id="xtick_2">
     <g id="line2d_2">
      <g>
       <use style="stroke:#000000;stroke-width:0.8;" x="137.680281" xlink:href="#m04732726bc" y="231.84"/>
      </g>
     </g>
     <g id="text_2">
      <!-- 2018-07 -->
      <g transform="translate(100.455461 266.311846)rotate(-30)scale(0.1 -0.1)">
       <defs>
        <path d="M 525 4666 
L 3525 4666 
L 3525 4397 
L 1831 0 
L 1172 0 
L 2766 4134 
L 525 4134 
L 525 4666 
z
" id="DejaVuSans-37" transform="scale(0.015625)"/>
       </defs>
       <use xlink:href="#DejaVuSans-32"/>
       <use x="63.623047" xlink:href="#DejaVuSans-30"/>
       <use x="127.246094" xlink:href="#DejaVuSans-31"/>
       <use x="190.869141" xlink:href="#DejaVuSans-38"/>
       <use x="254.492188" xlink:href="#DejaVuSans-2d"/>
       <use x="290.576172" xlink:href="#DejaVuSans-30"/>
       <use x="354.199219" xlink:href="#DejaVuSans-37"/>
      </g>
     </g>
    </g>
    <g id="xtick_3">
     <g id="line2d_3">
      <g>
       <use style="stroke:#000000;stroke-width:0.8;" x="178.949927" xlink:href="#m04732726bc" y="231.84"/>
      </g>
     </g>
     <g id="text_3">
      <!-- 2019-01 -->
      <g transform="translate(141.725106 266.311846)rotate(-30)scale(0.1 -0.1)">
       <defs>
        <path d="M 703 97 
L 703 672 
Q 941 559 1184 500 
Q 1428 441 1663 441 
Q 2288 441 2617 861 
Q 2947 1281 2994 2138 
Q 2813 1869 2534 1725 
Q 2256 1581 1919 1581 
Q 1219 1581 811 2004 
Q 403 2428 403 3163 
Q 403 3881 828 4315 
Q 1253 4750 1959 4750 
Q 2769 4750 3195 4129 
Q 3622 3509 3622 2328 
Q 3622 1225 3098 567 
Q 2575 -91 1691 -91 
Q 1453 -91 1209 -44 
Q 966 3 703 97 
z
M 1959 2075 
Q 2384 2075 2632 2365 
Q 2881 2656 2881 3163 
Q 2881 3666 2632 3958 
Q 2384 4250 1959 4250 
Q 1534 4250 1286 3958 
Q 1038 3666 1038 3163 
Q 1038 2656 1286 2365 
Q 1534 2075 1959 2075 
z
" id="DejaVuSans-39" transform="scale(0.015625)"/>
       </defs>
       <use xlink:href="#DejaVuSans-32"/>
       <use x="63.623047" xlink:href="#DejaVuSans-30"/>
       <use x="127.246094" xlink:href="#DejaVuSans-31"/>
       <use x="190.869141" xlink:href="#DejaVuSans-39"/>
       <use x="254.492188" xlink:href="#DejaVuSans-2d"/>
       <use x="290.576172" xlink:href="#DejaVuSans-30"/>
       <use x="354.199219" xlink:href="#DejaVuSans-31"/>
      </g>
     </g>
    </g>
    <g id="xtick_4">
     <g id="line2d_4">
      <g>
       <use style="stroke:#000000;stroke-width:0.8;" x="219.546698" xlink:href="#m04732726bc" y="231.84"/>
      </g>
     </g>
     <g id="text_4">
      <!-- 2019-07 -->
      <g transform="translate(182.321877 266.311846)rotate(-30)scale(0.1 -0.1)">
       <use xlink:href="#DejaVuSans-32"/>
       <use x="63.623047" xlink:href="#DejaVuSans-30"/>
       <use x="127.246094" xlink:href="#DejaVuSans-31"/>
       <use x="190.869141" xlink:href="#DejaVuSans-39"/>
       <use x="254.492188" xlink:href="#DejaVuSans-2d"/>
       <use x="290.576172" xlink:href="#DejaVuSans-30"/>
       <use x="354.199219" xlink:href="#DejaVuSans-37"/>
      </g>
     </g>
    </g>
    <g id="xtick_5">
     <g id="line2d_5">
      <g>
       <use style="stroke:#000000;stroke-width:0.8;" x="260.816344" xlink:href="#m04732726bc" y="231.84"/>
      </g>
     </g>
     <g id="text_5">
      <!-- 2020-01 -->
      <g transform="translate(223.591523 266.311846)rotate(-30)scale(0.1 -0.1)">
       <use xlink:href="#DejaVuSans-32"/>
       <use x="63.623047" xlink:href="#DejaVuSans-30"/>
       <use x="127.246094" xlink:href="#DejaVuSans-32"/>
       <use x="190.869141" xlink:href="#DejaVuSans-30"/>
       <use x="254.492188" xlink:href="#DejaVuSans-2d"/>
       <use x="290.576172" xlink:href="#DejaVuSans-30"/>
       <use x="354.199219" xlink:href="#DejaVuSans-31"/>
      </g>
     </g>
    </g>
    <g id="xtick_6">
     <g id="line2d_6">
      <g>
       <use style="stroke:#000000;stroke-width:0.8;" x="301.637406" xlink:href="#m04732726bc" y="231.84"/>
      </g>
     </g>
     <g id="text_6">
      <!-- 2020-07 -->
      <g transform="translate(264.412585 266.311846)rotate(-30)scale(0.1 -0.1)">
       <use xlink:href="#DejaVuSans-32"/>
       <use x="63.623047" xlink:href="#DejaVuSans-30"/>
       <use x="127.246094" xlink:href="#DejaVuSans-32"/>
       <use x="190.869141" xlink:href="#DejaVuSans-30"/>
       <use x="254.492188" xlink:href="#DejaVuSans-2d"/>
       <use x="290.576172" xlink:href="#DejaVuSans-30"/>
       <use x="354.199219" xlink:href="#DejaVuSans-37"/>
      </g>
     </g>
    </g>
    <g id="xtick_7">
     <g id="line2d_7">
      <g>
       <use style="stroke:#000000;stroke-width:0.8;" x="342.907052" xlink:href="#m04732726bc" y="231.84"/>
      </g>
     </g>
     <g id="text_7">
      <!-- 2021-01 -->
      <g transform="translate(305.682231 266.311846)rotate(-30)scale(0.1 -0.1)">
       <use xlink:href="#DejaVuSans-32"/>
       <use x="63.623047" xlink:href="#DejaVuSans-30"/>
       <use x="127.246094" xlink:href="#DejaVuSans-32"/>
       <use x="190.869141" xlink:href="#DejaVuSans-31"/>
       <use x="254.492188" xlink:href="#DejaVuSans-2d"/>
       <use x="290.576172" xlink:href="#DejaVuSans-30"/>
       <use x="354.199219" xlink:href="#DejaVuSans-31"/>
      </g>
     </g>
    </g>
    <g id="xtick_8">
     <g id="line2d_8">
      <g>
       <use style="stroke:#000000;stroke-width:0.8;" x="383.503823" xlink:href="#m04732726bc" y="231.84"/>
      </g>
     </g>
     <g id="text_8">
      <!-- 2021-07 -->
      <g transform="translate(346.279002 266.311846)rotate(-30)scale(0.1 -0.1)">
       <use xlink:href="#DejaVuSans-32"/>
       <use x="63.623047" xlink:href="#DejaVuSans-30"/>
       <use x="127.246094" xlink:href="#DejaVuSans-32"/>
       <use x="190.869141" xlink:href="#DejaVuSans-31"/>
       <use x="254.492188" xlink:href="#DejaVuSans-2d"/>
       <use x="290.576172" xlink:href="#DejaVuSans-30"/>
       <use x="354.199219" xlink:href="#DejaVuSans-37"/>
      </g>
     </g>
    </g>
    <g id="text_9">
     <!-- date -->
     <g transform="translate(228.794375 279.711346)scale(0.1 -0.1)">
      <defs>
       <path d="M 2906 2969 
L 2906 4863 
L 3481 4863 
L 3481 0 
L 2906 0 
L 2906 525 
Q 2725 213 2448 61 
Q 2172 -91 1784 -91 
Q 1150 -91 751 415 
Q 353 922 353 1747 
Q 353 2572 751 3078 
Q 1150 3584 1784 3584 
Q 2172 3584 2448 3432 
Q 2725 3281 2906 2969 
z
M 947 1747 
Q 947 1113 1208 752 
Q 1469 391 1925 391 
Q 2381 391 2643 752 
Q 2906 1113 2906 1747 
Q 2906 2381 2643 2742 
Q 2381 3103 1925 3103 
Q 1469 3103 1208 2742 
Q 947 2381 947 1747 
z
" id="DejaVuSans-64" transform="scale(0.015625)"/>
       <path d="M 2194 1759 
Q 1497 1759 1228 1600 
Q 959 1441 959 1056 
Q 959 750 1161 570 
Q 1363 391 1709 391 
Q 2188 391 2477 730 
Q 2766 1069 2766 1631 
L 2766 1759 
L 2194 1759 
z
M 3341 1997 
L 3341 0 
L 2766 0 
L 2766 531 
Q 2569 213 2275 61 
Q 1981 -91 1556 -91 
Q 1019 -91 701 211 
Q 384 513 384 1019 
Q 384 1609 779 1909 
Q 1175 2209 1959 2209 
L 2766 2209 
L 2766 2266 
Q 2766 2663 2505 2880 
Q 2244 3097 1772 3097 
Q 1472 3097 1187 3025 
Q 903 2953 641 2809 
L 641 3341 
Q 956 3463 1253 3523 
Q 1550 3584 1831 3584 
Q 2591 3584 2966 3190 
Q 3341 2797 3341 1997 
z
" id="DejaVuSans-61" transform="scale(0.015625)"/>
       <path d="M 1172 4494 
L 1172 3500 
L 2356 3500 
L 2356 3053 
L 1172 3053 
L 1172 1153 
Q 1172 725 1289 603 
Q 1406 481 1766 481 
L 2356 481 
L 2356 0 
L 1766 0 
Q 1100 0 847 248 
Q 594 497 594 1153 
L 594 3053 
L 172 3053 
L 172 3500 
L 594 3500 
L 594 4494 
L 1172 4494 
z
" id="DejaVuSans-74" transform="scale(0.015625)"/>
       <path d="M 3597 1894 
L 3597 1613 
L 953 1613 
Q 991 1019 1311 708 
Q 1631 397 2203 397 
Q 2534 397 2845 478 
Q 3156 559 3463 722 
L 3463 178 
Q 3153 47 2828 -22 
Q 2503 -91 2169 -91 
Q 1331 -91 842 396 
Q 353 884 353 1716 
Q 353 2575 817 3079 
Q 1281 3584 2069 3584 
Q 2775 3584 3186 3129 
Q 3597 2675 3597 1894 
z
M 3022 2063 
Q 3016 2534 2758 2815 
Q 2500 3097 2075 3097 
Q 1594 3097 1305 2825 
Q 1016 2553 972 2059 
L 3022 2063 
z
" id="DejaVuSans-65" transform="scale(0.015625)"/>
      </defs>
      <use xlink:href="#DejaVuSans-64"/>
      <use x="63.476562" xlink:href="#DejaVuSans-61"/>
      <use x="124.755859" xlink:href="#DejaVuSans-74"/>
      <use x="163.964844" xlink:href="#DejaVuSans-65"/>
     </g>
    </g>
   </g>
   <g id="matplotlib.axis_2">
    <g id="ytick_1">
     <g id="line2d_9">
      <defs>
       <path d="M 0 0 
L -3.5 0 
" id="maa15dd3bce" style="stroke:#000000;stroke-width:0.8;"/>
      </defs>
      <g>
       <use style="stroke:#000000;stroke-width:0.8;" x="72.669375" xlink:href="#maa15dd3bce" y="216.464755"/>
      </g>
     </g>
     <g id="text_10">
      <!-- −1.0 -->
      <g transform="translate(41.386562 220.263974)scale(0.1 -0.1)">
       <defs>
        <path d="M 678 2272 
L 4684 2272 
L 4684 1741 
L 678 1741 
L 678 2272 
z
" id="DejaVuSans-2212" transform="scale(0.015625)"/>
        <path d="M 684 794 
L 1344 794 
L 1344 0 
L 684 0 
L 684 794 
z
" id="DejaVuSans-2e" transform="scale(0.015625)"/>
       </defs>
       <use xlink:href="#DejaVuSans-2212"/>
       <use x="83.789062" xlink:href="#DejaVuSans-31"/>
       <use x="147.412109" xlink:href="#DejaVuSans-2e"/>
       <use x="179.199219" xlink:href="#DejaVuSans-30"/>
      </g>
     </g>
    </g>
    <g id="ytick_2">
     <g id="line2d_10">
      <g>
       <use style="stroke:#000000;stroke-width:0.8;" x="72.669375" xlink:href="#maa15dd3bce" y="184.094475"/>
      </g>
     </g>
     <g id="text_11">
      <!-- −0.8 -->
      <g transform="translate(41.386562 187.893694)scale(0.1 -0.1)">
       <use xlink:href="#DejaVuSans-2212"/>
       <use x="83.789062" xlink:href="#DejaVuSans-30"/>
       <use x="147.412109" xlink:href="#DejaVuSans-2e"/>
       <use x="179.199219" xlink:href="#DejaVuSans-38"/>
      </g>
     </g>
    </g>
    <g id="ytick_3">
     <g id="line2d_11">
      <g>
       <use style="stroke:#000000;stroke-width:0.8;" x="72.669375" xlink:href="#maa15dd3bce" y="151.724195"/>
      </g>
     </g>
     <g id="text_12">
      <!-- −0.6 -->
      <g transform="translate(41.386562 155.523414)scale(0.1 -0.1)">
       <defs>
        <path d="M 2113 2584 
Q 1688 2584 1439 2293 
Q 1191 2003 1191 1497 
Q 1191 994 1439 701 
Q 1688 409 2113 409 
Q 2538 409 2786 701 
Q 3034 994 3034 1497 
Q 3034 2003 2786 2293 
Q 2538 2584 2113 2584 
z
M 3366 4563 
L 3366 3988 
Q 3128 4100 2886 4159 
Q 2644 4219 2406 4219 
Q 1781 4219 1451 3797 
Q 1122 3375 1075 2522 
Q 1259 2794 1537 2939 
Q 1816 3084 2150 3084 
Q 2853 3084 3261 2657 
Q 3669 2231 3669 1497 
Q 3669 778 3244 343 
Q 2819 -91 2113 -91 
Q 1303 -91 875 529 
Q 447 1150 447 2328 
Q 447 3434 972 4092 
Q 1497 4750 2381 4750 
Q 2619 4750 2861 4703 
Q 3103 4656 3366 4563 
z
" id="DejaVuSans-36" transform="scale(0.015625)"/>
       </defs>
       <use xlink:href="#DejaVuSans-2212"/>
       <use x="83.789062" xlink:href="#DejaVuSans-30"/>
       <use x="147.412109" xlink:href="#DejaVuSans-2e"/>
       <use x="179.199219" xlink:href="#DejaVuSans-36"/>
      </g>
     </g>
    </g>
    <g id="ytick_4">
     <g id="line2d_12">
      <g>
       <use style="stroke:#000000;stroke-width:0.8;" x="72.669375" xlink:href="#maa15dd3bce" y="119.353915"/>
      </g>
     </g>
     <g id="text_13">
      <!-- −0.4 -->
      <g transform="translate(41.386562 123.153133)scale(0.1 -0.1)">
       <defs>
        <path d="M 2419 4116 
L 825 1625 
L 2419 1625 
L 2419 4116 
z
M 2253 4666 
L 3047 4666 
L 3047 1625 
L 3713 1625 
L 3713 1100 
L 3047 1100 
L 3047 0 
L 2419 0 
L 2419 1100 
L 313 1100 
L 313 1709 
L 2253 4666 
z
" id="DejaVuSans-34" transform="scale(0.015625)"/>
       </defs>
       <use xlink:href="#DejaVuSans-2212"/>
       <use x="83.789062" xlink:href="#DejaVuSans-30"/>
       <use x="147.412109" xlink:href="#DejaVuSans-2e"/>
       <use x="179.199219" xlink:href="#DejaVuSans-34"/>
      </g>
     </g>
    </g>
    <g id="ytick_5">
     <g id="line2d_13">
      <g>
       <use style="stroke:#000000;stroke-width:0.8;" x="72.669375" xlink:href="#maa15dd3bce" y="86.983635"/>
      </g>
     </g>
     <g id="text_14">
      <!-- −0.2 -->
      <g transform="translate(41.386562 90.782853)scale(0.1 -0.1)">
       <use xlink:href="#DejaVuSans-2212"/>
       <use x="83.789062" xlink:href="#DejaVuSans-30"/>
       <use x="147.412109" xlink:href="#DejaVuSans-2e"/>
       <use x="179.199219" xlink:href="#DejaVuSans-32"/>
      </g>
     </g>
    </g>
    <g id="ytick_6">
     <g id="line2d_14">
      <g>
       <use style="stroke:#000000;stroke-width:0.8;" x="72.669375" xlink:href="#maa15dd3bce" y="54.613354"/>
      </g>
     </g>
     <g id="text_15">
      <!-- 0.0 -->
      <g transform="translate(49.76625 58.412573)scale(0.1 -0.1)">
       <use xlink:href="#DejaVuSans-30"/>
       <use x="63.623047" xlink:href="#DejaVuSans-2e"/>
       <use x="95.410156" xlink:href="#DejaVuSans-30"/>
      </g>
     </g>
    </g>
   </g>
   <g id="line2d_15">
    <path clip-path="url(#p231f039f8e)" d="M 370.943496 231.84 
L 370.943496 36 
" style="fill:none;stroke:#1f77b4;stroke-dasharray:5.55,2.4;stroke-dashoffset:0;stroke-opacity:0.5;stroke-width:1.5;"/>
   </g>
   <g id="line2d_16">
    <path clip-path="url(#p231f039f8e)" d="M 87.887557 54.612587 
L 88.111848 56.23041 
L 88.33614 52.994401 
L 88.560431 54.612345 
L 89.457598 54.612972 
L 89.681889 56.231158 
L 89.906181 54.612972 
L 91.476222 54.612489 
L 91.700513 56.230916 
L 92.373388 54.612731 
L 92.821971 54.612489 
L 93.046263 52.994545 
L 93.270554 56.230554 
L 93.943429 54.611983 
L 94.840595 54.612489 
L 95.962053 51.375732 
L 96.186344 56.231302 
L 96.410636 57.849367 
L 97.532094 54.612731 
L 97.756385 56.231302 
L 97.980677 54.612368 
L 98.877843 54.612391 
L 99.102134 52.993843 
L 99.326426 54.612679 
L 99.550718 51.374956 
L 100.223592 56.230842 
L 100.447884 52.994085 
L 100.672175 54.613018 
L 100.896467 57.849654 
L 101.120758 56.230842 
L 101.793633 52.994447 
L 102.017925 52.99382 
L 102.466508 56.230939 
L 102.690799 54.612489 
L 103.363674 54.612731 
L 103.587965 56.231158 
L 103.812257 52.994234 
L 104.036549 59.468012 
L 104.26084 54.612949 
L 104.933715 54.612684 
L 105.382298 57.84966 
L 105.606589 54.61242 
L 105.830881 56.231209 
L 106.503756 51.376146 
L 106.952339 54.612517 
L 107.400922 54.612471 
L 108.073797 52.994165 
L 108.298088 54.612977 
L 108.52238 52.993681 
L 108.746671 59.46857 
L 108.970963 52.993584 
L 109.643837 56.230945 
L 109.868129 54.613 
L 110.09242 56.231042 
L 110.316712 56.231163 
L 110.541004 57.84959 
L 111.213878 54.613075 
L 111.43817 49.75712 
L 111.662461 54.612666 
L 111.886753 52.99436 
L 112.111044 54.612448 
L 112.783919 57.849228 
L 113.008211 56.231042 
L 113.232502 52.9939 
L 113.456794 52.993515 
L 113.681085 54.612569 
L 114.35396 52.993877 
L 114.578252 52.99436 
L 114.802543 54.612448 
L 115.026835 54.612713 
L 115.251126 52.994118 
L 115.924001 56.231358 
L 116.148292 54.612569 
L 116.372584 56.230755 
L 116.596876 54.612327 
L 117.942625 54.612448 
L 118.166916 52.994072 
L 118.391208 57.850246 
L 119.064083 56.231071 
L 119.288374 52.993831 
L 119.512666 54.613391 
L 119.736957 51.375645 
L 119.961249 51.375524 
L 120.634123 54.613391 
L 120.858415 52.994458 
L 121.306998 56.231577 
L 121.53129 51.37526 
L 122.204164 54.613006 
L 122.877039 54.612764 
L 123.101331 56.231818 
L 123.774205 56.230829 
L 123.998497 57.8494 
L 124.222788 52.994458 
L 124.44708 54.612402 
L 124.671371 54.613029 
L 125.344246 56.230973 
L 125.792829 52.993831 
L 126.241412 56.231456 
L 126.914287 54.612402 
L 127.138578 54.613391 
L 127.36287 56.231215 
L 127.587162 54.613029 
L 127.811453 54.61204 
L 128.484328 56.231094 
L 128.708619 52.994578 
L 128.932911 54.612143 
L 129.381494 51.375386 
L 130.054369 56.231657 
L 130.27866 52.994031 
L 130.502952 54.612942 
L 130.727243 54.613448 
L 130.951535 52.994031 
L 131.848701 54.613085 
L 132.072993 52.993887 
L 132.297284 54.612821 
L 132.521576 54.612821 
L 133.19445 51.375822 
L 133.418742 52.994877 
L 133.643033 56.23149 
L 134.091617 52.99483 
L 134.764491 54.612533 
L 134.988783 54.612775 
L 135.213074 52.994227 
L 135.437366 52.993985 
L 135.661657 54.613448 
L 136.334532 52.994635 
L 136.558824 52.993525 
L 136.783115 54.612844 
L 137.007407 51.375144 
L 137.231698 54.612793 
L 138.353156 54.612723 
L 138.577448 52.994658 
L 138.801739 52.993669 
L 139.474614 54.612482 
L 139.923197 54.612505 
L 140.147488 52.993571 
L 140.37178 54.613132 
L 141.044655 49.756814 
L 141.268946 54.613229 
L 142.838987 54.612338 
L 143.063279 52.994514 
L 143.28757 54.6127 
L 144.409028 54.612315 
L 144.63332 52.993743 
L 145.081903 52.993743 
L 145.754777 54.613304 
L 145.979069 52.99437 
L 146.20336 54.613304 
L 146.427652 54.613304 
L 146.651944 52.994203 
L 147.324818 52.994445 
L 147.54911 54.612705 
L 148.221984 54.612268 
L 148.894859 51.37527 
L 149.119151 54.61251 
L 149.343442 52.994687 
L 149.792025 56.230696 
L 150.4649 54.612751 
L 150.689191 52.993939 
L 150.913483 54.612268 
L 151.137775 54.612412 
L 151.362066 51.375776 
L 152.034941 54.613016 
L 152.259232 52.99483 
L 152.483524 54.613016 
L 152.707815 52.994203 
L 152.932107 52.994324 
L 153.604982 57.849531 
L 153.829273 54.612654 
L 155.847897 54.61251 
L 156.072189 52.99406 
L 156.745063 54.612125 
L 156.969355 52.99406 
L 157.193646 56.230937 
L 157.417938 52.994301 
L 157.64223 52.993553 
L 158.315104 54.613476 
L 158.987979 54.612705 
L 159.21227 52.994013 
L 159.885145 54.612441 
L 160.109437 56.231857 
L 160.333728 52.994209 
L 160.55802 52.994186 
L 160.782311 54.613119 
L 161.455186 52.994933 
L 161.679477 57.849778 
L 161.903769 54.613286 
L 162.128061 57.850331 
L 162.352352 54.612125 
L 163.249518 52.993697 
L 163.47381 54.612125 
L 163.698101 54.613332 
L 163.922393 52.994278 
L 164.595268 54.612366 
L 164.819559 56.231541 
L 165.043851 54.612728 
L 165.268142 51.375971 
L 165.492434 54.613476 
L 166.165309 54.612728 
L 166.3896 57.849485 
L 166.613892 54.612849 
L 169.30539 54.61297 
L 169.529682 56.231397 
L 169.753973 54.612585 
L 170.202556 54.612199 
L 170.875431 59.46847 
L 171.099723 54.612659 
L 171.548306 54.612803 
L 171.772597 56.231857 
L 172.445472 54.612803 
L 172.894055 54.612924 
L 173.118347 57.850043 
L 173.342638 56.231857 
L 174.015513 54.612538 
L 174.239804 52.993726 
L 174.464096 56.231328 
L 174.688388 54.612901 
L 174.912679 54.612394 
L 175.585554 56.231328 
L 175.809845 54.613119 
L 176.034137 54.613119 
L 176.258428 56.231546 
L 176.48272 56.23169 
L 177.828469 52.994329 
L 178.052761 54.612901 
L 178.725635 49.756969 
L 179.39851 56.231713 
L 179.622802 54.612659 
L 180.519968 54.612924 
L 180.744259 52.994134 
L 180.968551 49.756773 
L 181.192843 52.994111 
L 181.865717 52.994232 
L 182.090009 56.231857 
L 182.3143 56.230868 
L 182.538592 52.994352 
L 182.762883 51.375661 
L 183.435758 54.612924 
L 183.66005 54.612924 
L 183.884341 52.994859 
L 184.108633 54.612682 
L 185.005799 54.61297 
L 185.23009 51.375586 
L 185.902965 56.231253 
L 186.57584 52.994617 
L 186.800131 54.612682 
L 187.473006 54.612297 
L 188.145881 52.994473 
L 188.370172 59.467866 
L 188.594464 51.375298 
L 188.818755 54.612538 
L 189.043047 52.993967 
L 189.715922 54.612394 
L 189.940213 51.376144 
L 190.164505 52.994209 
L 191.734545 52.994789 
L 191.958837 49.757434 
L 192.183129 51.376247 
L 192.856003 54.6124 
L 193.304586 54.613073 
L 193.528878 49.757791 
L 193.753169 54.612854 
L 194.426044 56.231644 
L 194.650336 52.993996 
L 194.874627 56.231379 
L 195.098919 54.612687 
L 196.66896 54.613004 
L 196.893251 52.993829 
L 197.566126 54.612762 
L 197.790417 54.612762 
L 198.014709 52.993829 
L 198.239001 54.612641 
L 198.463292 54.6124 
L 199.136167 52.99361 
L 199.360458 54.612711 
L 199.58475 52.994116 
L 199.809041 52.994116 
L 200.033333 56.230994 
L 200.706208 54.612423 
L 201.379082 54.613027 
L 201.603374 51.375401 
L 202.276248 52.994335 
L 202.50054 54.613147 
L 202.724832 57.85029 
L 202.949123 52.994358 
L 204.070581 52.99361 
L 204.294872 51.375666 
L 204.743456 54.613027 
L 205.41633 54.613027 
L 205.640622 51.375401 
L 205.864913 52.994335 
L 206.089205 67.560681 
L 206.313496 52.993972 
L 206.986371 54.6124 
L 207.210663 49.757336 
L 207.434954 54.613027 
L 207.659246 51.376028 
L 207.883537 54.612906 
L 209.004995 54.612641 
L 209.229287 51.375643 
L 209.453578 54.613389 
L 210.126453 54.612883 
L 210.350744 56.231575 
L 210.575036 52.99407 
L 211.023619 56.231816 
L 211.696494 52.99407 
L 212.59366 52.994001 
L 213.490826 56.231747 
L 213.715118 51.375936 
L 213.939409 54.612814 
L 214.163701 54.612934 
L 214.836575 51.376419 
L 215.060867 56.231482 
L 215.285158 52.994099 
L 215.50945 56.231218 
L 215.733742 54.612284 
L 216.406616 52.994846 
L 216.630908 54.613032 
L 216.855199 54.612284 
L 217.079491 56.231097 
L 217.303782 54.613032 
L 217.976657 52.994099 
L 218.200949 56.231097 
L 218.42524 52.994461 
L 218.649532 54.613009 
L 219.546698 54.612382 
L 219.77099 56.231798 
L 219.995281 54.613227 
L 220.219573 61.087034 
L 220.443864 52.994271 
L 221.116739 57.850226 
L 221.565322 51.375527 
L 221.789613 54.613417 
L 223.135363 54.61279 
L 223.359654 52.993954 
L 223.583946 54.613129 
L 224.705404 54.612382 
L 224.929695 56.231557 
L 225.153987 54.612744 
L 225.826861 54.612986 
L 226.051153 52.994294 
L 226.275445 56.231051 
L 226.499736 54.612986 
L 226.724028 54.613227 
L 227.396902 56.231292 
L 227.621194 56.231292 
L 227.845485 52.9948 
L 228.069777 52.994414 
L 228.294069 54.612238 
L 228.966943 54.612796 
L 229.191235 57.849311 
L 229.415526 54.61241 
L 230.761276 54.613376 
L 230.985567 57.850254 
L 231.209859 49.758048 
L 231.43415 54.612847 
L 232.107025 49.757858 
L 232.331316 56.231228 
L 232.555608 51.375659 
L 232.7799 52.994494 
L 233.004191 51.376332 
L 233.677066 52.994276 
L 233.901357 54.612583 
L 234.125649 54.613066 
L 234.34994 52.994615 
L 234.574232 52.99423 
L 235.247107 54.613066 
L 235.471398 48.138827 
L 235.69569 56.231493 
L 235.919981 52.994351 
L 236.144273 54.612295 
L 236.817147 54.612295 
L 237.041439 56.230866 
L 237.265731 54.612922 
L 237.490022 57.84992 
L 237.714314 54.613284 
L 238.61148 54.612801 
L 238.835771 52.993867 
L 239.060063 54.612773 
L 239.284355 51.376016 
L 239.957229 54.612773 
L 240.181521 51.376016 
L 240.405812 46.52059 
L 240.630104 54.613446 
L 241.751562 54.61221 
L 241.975853 59.468239 
L 242.200145 54.613417 
L 242.424436 54.612934 
L 243.097311 52.993639 
L 243.321603 54.613561 
L 243.545894 52.994628 
L 243.770186 52.994386 
L 243.994477 54.612572 
L 244.667352 52.994001 
L 244.891643 52.994265 
L 245.115935 56.231143 
L 245.340226 54.613343 
L 245.564518 51.375861 
L 246.461684 54.613027 
L 246.685976 52.994456 
L 247.134559 52.99453 
L 247.807434 51.375717 
L 248.031725 54.61221 
L 248.256017 54.612256 
L 248.480308 52.994191 
L 249.377474 52.994674 
L 249.601766 54.61221 
L 250.050349 51.376057 
L 250.274641 52.994749 
L 250.947515 56.231505 
L 251.171807 54.613561 
L 251.844681 54.612814 
L 252.517556 52.994001 
L 252.741848 48.13942 
L 252.966139 56.231747 
L 253.190431 56.231626 
L 253.414722 51.375815 
L 254.087597 52.993639 
L 254.311889 54.612814 
L 254.53618 57.84957 
L 254.760472 44.901818 
L 254.984763 54.613343 
L 255.657638 54.612837 
L 255.881929 52.994772 
L 256.106221 61.086592 
L 256.330513 51.375959 
L 256.554804 54.613199 
L 257.227679 56.230781 
L 257.45197 54.61221 
L 257.676262 46.520631 
L 257.900553 57.849208 
L 258.124845 54.612451 
L 258.79772 52.994749 
L 259.022011 56.231385 
L 259.694886 51.375815 
L 260.36776 52.994749 
L 260.592052 59.468141 
L 261.264927 52.994265 
L 261.937801 57.850197 
L 262.162093 52.994386 
L 262.386384 54.61221 
L 262.610676 46.519883 
L 262.834968 54.61221 
L 263.507842 52.994386 
L 263.956425 52.993639 
L 264.180717 54.61221 
L 264.405008 52.994265 
L 265.077883 56.231264 
L 265.302175 56.231264 
L 265.526466 54.612451 
L 265.750758 54.612451 
L 265.975049 56.231385 
L 266.647924 54.612451 
L 266.872215 56.231505 
L 267.096507 52.994749 
L 267.320799 54.612814 
L 267.54509 61.087075 
L 268.442256 52.994099 
L 268.666548 54.612284 
L 269.115131 52.993954 
L 269.788006 52.993954 
L 270.012297 51.37589 
L 270.236589 54.612647 
L 270.46088 54.613274 
L 270.685172 51.375769 
L 271.358047 52.99434 
L 271.582338 56.231482 
L 271.80663 56.231603 
L 272.030921 57.850416 
L 272.255213 54.612934 
L 272.928087 56.231747 
L 273.152379 54.613176 
L 273.600962 54.612428 
L 273.825254 51.376033 
L 274.72242 51.375913 
L 274.946711 56.231218 
L 275.171003 54.613274 
L 275.395294 56.231218 
L 276.068169 49.75756 
L 276.292461 51.375602 
L 276.516752 49.757175 
L 276.741044 49.757175 
L 276.965335 69.179792 
L 277.63821 54.613446 
L 277.862502 54.612819 
L 278.086793 51.375866 
L 278.311085 52.994605 
L 278.535376 57.85003 
L 279.208251 56.231028 
L 279.432542 54.613204 
L 280.105417 54.612526 
L 280.778292 56.230953 
L 281.002583 54.612888 
L 281.226875 56.231701 
L 281.451166 61.086281 
L 281.675458 51.376131 
L 282.348333 52.994196 
L 282.572624 57.849886 
L 282.796916 69.179597 
L 283.021207 56.230953 
L 284.142665 52.994317 
L 284.366957 54.613371 
L 284.591248 59.467951 
L 284.81554 56.231557 
L 285.488414 57.849622 
L 285.712706 57.850346 
L 285.936997 54.613083 
L 287.282747 54.612842 
L 287.507038 56.231028 
L 287.73133 54.612456 
L 288.628496 54.612963 
L 288.852788 56.232017 
L 289.077079 52.994633 
L 289.301371 59.46863 
L 289.525662 54.612796 
L 290.198537 59.468342 
L 290.64712 49.756841 
L 291.095703 57.849938 
L 291.768578 52.994368 
L 291.992869 54.613302 
L 292.217161 54.612554 
L 292.441452 52.994127 
L 292.665744 54.612313 
L 293.338619 54.612313 
L 293.56291 52.994248 
L 293.787202 54.612313 
L 294.011493 57.849938 
L 294.235785 54.612819 
L 295.132951 56.231028 
L 295.357243 54.613204 
L 295.581534 54.612963 
L 295.805826 59.467808 
L 296.4787 62.705479 
L 296.702992 56.230855 
L 296.927283 54.613274 
L 297.375867 54.613227 
L 298.048741 56.231655 
L 298.273033 54.613589 
L 298.497324 57.850346 
L 298.721616 59.469159 
L 298.945907 54.612479 
L 299.843074 54.6126 
L 300.067365 48.138845 
L 300.291657 52.994656 
L 300.515948 52.994656 
L 301.188823 54.6126 
L 301.413115 54.612479 
L 301.637406 52.994294 
L 301.861698 56.231798 
L 302.085989 56.231557 
L 302.758864 52.994559 
L 302.983155 57.849645 
L 303.207447 54.612888 
L 303.431739 54.613371 
L 303.65603 51.375625 
L 304.328905 54.612986 
L 304.553196 54.613371 
L 304.777488 52.994944 
L 305.001779 57.850272 
L 305.226071 54.612526 
L 306.123237 54.612526 
L 306.347529 49.756956 
L 306.57182 54.612526 
L 308.366153 54.612382 
L 309.039027 51.375383 
L 309.263319 54.613129 
L 309.48761 52.994317 
L 309.711902 54.613129 
L 309.936194 52.994317 
L 310.609068 54.612382 
L 310.83336 54.612382 
L 311.057651 56.231195 
L 311.281943 56.231195 
L 311.506234 52.994196 
L 312.179109 52.994196 
L 312.403401 56.230953 
L 312.627692 54.612888 
L 312.851984 56.231701 
L 313.076275 56.231459 
L 313.74915 54.612284 
L 313.973441 54.612911 
L 314.197733 56.230855 
L 314.422025 54.61279 
L 314.646316 56.231362 
L 315.319191 54.612814 
L 315.543482 57.85056 
L 315.767774 54.613561 
L 315.992065 54.612572 
L 316.216357 56.231747 
L 316.889232 54.613417 
L 317.113523 56.231241 
L 317.337815 54.612428 
L 317.562106 54.612934 
L 317.786398 52.994001 
L 318.459273 54.612934 
L 318.907856 54.612814 
L 319.132147 56.231143 
L 320.029313 56.23177 
L 320.253605 54.612814 
L 320.92648 59.468745 
L 321.599354 54.612814 
L 321.823646 54.612934 
L 322.047937 57.849812 
L 322.272229 54.612814 
L 322.49652 54.612814 
L 323.169395 52.994749 
L 323.393687 54.613561 
L 323.617978 54.613199 
L 323.84227 56.231264 
L 324.066561 56.231264 
L 324.739436 54.61221 
L 324.963728 61.08734 
L 325.188019 56.231529 
L 325.412311 54.612716 
L 325.636602 56.231408 
L 326.309477 54.613343 
L 326.533768 57.849617 
L 326.75806 54.613389 
L 326.982351 52.994116 
L 327.206643 54.613314 
L 328.103809 52.993898 
L 328.328101 54.612757 
L 328.552392 52.993582 
L 328.776684 56.231328 
L 329.449559 54.613119 
L 329.67385 54.612854 
L 329.898142 59.468643 
L 330.122433 54.612325 
L 330.346725 56.231259 
L 331.019599 52.994599 
L 331.243891 49.757963 
L 331.468183 54.6124 
L 331.692474 56.231598 
L 331.916766 54.613533 
L 332.58964 52.99472 
L 332.813932 54.612687 
L 333.038223 52.993898 
L 333.262515 56.230896 
L 333.486806 56.231644 
L 334.159681 57.84995 
L 334.383973 54.612952 
L 334.608264 56.230655 
L 334.832556 54.612831 
L 335.056847 56.230896 
L 335.729722 54.612325 
L 336.402597 54.612929 
L 336.626888 57.850313 
L 337.299763 51.375689 
L 337.524054 52.994599 
L 337.748346 56.231477 
L 337.972638 56.231115 
L 338.196929 54.612929 
L 338.869804 57.850313 
L 339.094095 51.375689 
L 339.318387 54.612325 
L 339.542678 54.612567 
L 339.76697 52.994381 
L 340.439845 52.994502 
L 340.664136 54.613314 
L 340.888428 54.613314 
L 341.112719 56.231259 
L 342.234177 52.994743 
L 342.458469 57.850313 
L 342.68276 52.994502 
L 343.804218 54.613314 
L 344.028509 52.993996 
L 344.252801 54.613314 
L 344.477093 57.849324 
L 345.149967 56.231886 
L 345.374259 56.231138 
L 345.59855 54.612325 
L 345.822842 56.231259 
L 346.720008 56.231138 
L 346.9443 54.613073 
L 347.617174 54.612975 
L 348.290049 56.231788 
L 348.962924 56.230799 
L 349.187215 59.468303 
L 349.86009 56.231546 
L 350.084381 56.231546 
L 350.308673 54.612371 
L 350.532964 51.375373 
L 350.757256 56.231449 
L 351.654422 52.994571 
L 351.878714 54.613142 
L 352.103005 52.994352 
L 352.327297 56.231109 
L 353.000172 54.613045 
L 353.224463 54.612538 
L 353.448755 56.231109 
L 353.673046 54.612803 
L 353.897338 59.468758 
L 354.570212 57.849894 
L 354.794504 54.612654 
L 356.364545 54.613016 
L 356.588836 52.9936 
L 356.813128 54.612677 
L 357.037419 52.994877 
L 357.710294 54.612556 
L 358.60746 54.613016 
L 359.280335 56.230598 
L 359.504627 61.086674 
L 359.728918 59.46873 
L 359.95321 56.231731 
L 360.177501 54.61316 
L 361.074667 54.612533 
L 361.298959 49.757205 
L 361.523251 54.612631 
L 362.644708 54.612751 
L 362.869 56.230937 
L 363.093291 56.23142 
L 364.214749 54.612826 
L 364.887624 54.612227 
L 365.560498 56.230896 
L 366.233373 51.375637 
L 366.457665 54.612394 
L 367.130539 54.61278 
L 367.354831 52.994232 
L 367.579122 54.612538 
L 368.924872 54.612394 
L 369.149163 52.994209 
L 369.373455 54.612394 
L 369.597746 51.375879 
L 370.270621 54.612394 
L 370.494913 61.086512 
L 370.943496 61.086512 
L 371.167787 111.26144 
L 371.840662 158.198161 
L 372.064953 90.220038 
L 372.289245 64.323349 
L 372.513537 70.798214 
L 372.737828 80.509549 
L 373.410703 70.797927 
L 373.634994 72.416354 
L 374.307869 104.786798 
L 374.980744 99.931229 
L 375.205035 116.116462 
L 375.429327 119.353461 
L 375.653618 145.249615 
L 375.87791 153.342569 
L 376.550785 154.960634 
L 376.775076 143.631044 
L 376.999368 146.868307 
L 377.223659 158.197391 
L 377.447951 146.868043 
L 378.569408 174.382843 
L 379.017992 193.805219 
L 379.690866 200.279216 
L 380.139449 222.938182 
L 380.363741 197.041763 
L 380.588032 188.949678 
L 381.260907 179.238441 
L 381.485199 151.723905 
L 381.70949 142.012789 
L 381.933782 151.724049 
L 382.158073 137.157122 
L 382.830948 103.168543 
L 383.05524 70.798582 
L 383.503823 83.745776 
L 383.728114 78.890569 
L 384.400989 93.457376 
L 384.62528 90.220619 
L 384.849572 88.601806 
L 385.073864 82.127303 
L 385.298155 82.127303 
L 385.97103 70.79822 
L 386.195321 83.746236 
L 386.419613 78.890523 
L 386.868196 85.364399 
L 387.541071 91.838517 
L 387.989654 112.87932 
L 388.213945 114.498495 
L 388.438237 124.208501 
L 389.111111 143.631383 
L 389.335403 169.527371 
L 389.783986 187.331032 
L 390.008278 198.661082 
L 390.681152 163.053351 
L 390.905444 133.919496 
L 391.129735 142.012306 
L 391.354027 143.63124 
L 391.578319 143.631625 
L 392.251193 151.724195 
L 392.251193 151.724195 
" style="fill:none;stroke:#1f77b4;stroke-linecap:square;stroke-width:1.5;"/>
   </g>
   <g id="patch_3">
    <path d="M 72.669375 231.84 
L 72.669375 36 
" style="fill:none;stroke:#000000;stroke-linecap:square;stroke-linejoin:miter;stroke-width:0.8;"/>
   </g>
   <g id="patch_4">
    <path d="M 407.469375 231.84 
L 407.469375 36 
" style="fill:none;stroke:#000000;stroke-linecap:square;stroke-linejoin:miter;stroke-width:0.8;"/>
   </g>
   <g id="patch_5">
    <path d="M 72.669375 231.84 
L 407.469375 231.84 
" style="fill:none;stroke:#000000;stroke-linecap:square;stroke-linejoin:miter;stroke-width:0.8;"/>
   </g>
   <g id="patch_6">
    <path d="M 72.669375 36 
L 407.469375 36 
" style="fill:none;stroke:#000000;stroke-linecap:square;stroke-linejoin:miter;stroke-width:0.8;"/>
   </g>
   <g id="text_16">
    <!-- Cap implemented -->
    <g style="fill:#334f8d;opacity:0.7;" transform="translate(273.825254 151.724195)scale(0.1 -0.1)">
     <defs>
      <path d="M 4122 4306 
L 4122 3641 
Q 3803 3938 3442 4084 
Q 3081 4231 2675 4231 
Q 1875 4231 1450 3742 
Q 1025 3253 1025 2328 
Q 1025 1406 1450 917 
Q 1875 428 2675 428 
Q 3081 428 3442 575 
Q 3803 722 4122 1019 
L 4122 359 
Q 3791 134 3420 21 
Q 3050 -91 2638 -91 
Q 1578 -91 968 557 
Q 359 1206 359 2328 
Q 359 3453 968 4101 
Q 1578 4750 2638 4750 
Q 3056 4750 3426 4639 
Q 3797 4528 4122 4306 
z
" id="DejaVuSans-43" transform="scale(0.015625)"/>
      <path d="M 1159 525 
L 1159 -1331 
L 581 -1331 
L 581 3500 
L 1159 3500 
L 1159 2969 
Q 1341 3281 1617 3432 
Q 1894 3584 2278 3584 
Q 2916 3584 3314 3078 
Q 3713 2572 3713 1747 
Q 3713 922 3314 415 
Q 2916 -91 2278 -91 
Q 1894 -91 1617 61 
Q 1341 213 1159 525 
z
M 3116 1747 
Q 3116 2381 2855 2742 
Q 2594 3103 2138 3103 
Q 1681 3103 1420 2742 
Q 1159 2381 1159 1747 
Q 1159 1113 1420 752 
Q 1681 391 2138 391 
Q 2594 391 2855 752 
Q 3116 1113 3116 1747 
z
" id="DejaVuSans-70" transform="scale(0.015625)"/>
      <path id="DejaVuSans-20" transform="scale(0.015625)"/>
      <path d="M 603 3500 
L 1178 3500 
L 1178 0 
L 603 0 
L 603 3500 
z
M 603 4863 
L 1178 4863 
L 1178 4134 
L 603 4134 
L 603 4863 
z
" id="DejaVuSans-69" transform="scale(0.015625)"/>
      <path d="M 3328 2828 
Q 3544 3216 3844 3400 
Q 4144 3584 4550 3584 
Q 5097 3584 5394 3201 
Q 5691 2819 5691 2113 
L 5691 0 
L 5113 0 
L 5113 2094 
Q 5113 2597 4934 2840 
Q 4756 3084 4391 3084 
Q 3944 3084 3684 2787 
Q 3425 2491 3425 1978 
L 3425 0 
L 2847 0 
L 2847 2094 
Q 2847 2600 2669 2842 
Q 2491 3084 2119 3084 
Q 1678 3084 1418 2786 
Q 1159 2488 1159 1978 
L 1159 0 
L 581 0 
L 581 3500 
L 1159 3500 
L 1159 2956 
Q 1356 3278 1631 3431 
Q 1906 3584 2284 3584 
Q 2666 3584 2933 3390 
Q 3200 3197 3328 2828 
z
" id="DejaVuSans-6d" transform="scale(0.015625)"/>
      <path d="M 603 4863 
L 1178 4863 
L 1178 0 
L 603 0 
L 603 4863 
z
" id="DejaVuSans-6c" transform="scale(0.015625)"/>
      <path d="M 3513 2113 
L 3513 0 
L 2938 0 
L 2938 2094 
Q 2938 2591 2744 2837 
Q 2550 3084 2163 3084 
Q 1697 3084 1428 2787 
Q 1159 2491 1159 1978 
L 1159 0 
L 581 0 
L 581 3500 
L 1159 3500 
L 1159 2956 
Q 1366 3272 1645 3428 
Q 1925 3584 2291 3584 
Q 2894 3584 3203 3211 
Q 3513 2838 3513 2113 
z
" id="DejaVuSans-6e" transform="scale(0.015625)"/>
     </defs>
     <use xlink:href="#DejaVuSans-43"/>
     <use x="69.824219" xlink:href="#DejaVuSans-61"/>
     <use x="131.103516" xlink:href="#DejaVuSans-70"/>
     <use x="194.580078" xlink:href="#DejaVuSans-20"/>
     <use x="226.367188" xlink:href="#DejaVuSans-69"/>
     <use x="254.150391" xlink:href="#DejaVuSans-6d"/>
     <use x="351.5625" xlink:href="#DejaVuSans-70"/>
     <use x="415.039062" xlink:href="#DejaVuSans-6c"/>
     <use x="442.822266" xlink:href="#DejaVuSans-65"/>
     <use x="504.345703" xlink:href="#DejaVuSans-6d"/>
     <use x="601.757812" xlink:href="#DejaVuSans-65"/>
     <use x="663.28125" xlink:href="#DejaVuSans-6e"/>
     <use x="726.660156" xlink:href="#DejaVuSans-74"/>
     <use x="765.869141" xlink:href="#DejaVuSans-65"/>
     <use x="827.392578" xlink:href="#DejaVuSans-64"/>
    </g>
   </g>
   <g id="legend_1">
    <g id="patch_7">
     <path d="M 79.669375 226.84 
L 241.730312 226.84 
Q 243.730312 226.84 243.730312 224.84 
L 243.730312 211.161875 
Q 243.730312 209.161875 241.730312 209.161875 
L 79.669375 209.161875 
Q 77.669375 209.161875 77.669375 211.161875 
L 77.669375 224.84 
Q 77.669375 226.84 79.669375 226.84 
z
" style="fill:#ffffff;opacity:0.8;stroke:#cccccc;stroke-linejoin:miter;"/>
    </g>
    <g id="line2d_17">
     <path d="M 81.669375 217.260312 
L 101.669375 217.260312 
" style="fill:none;stroke:#1f77b4;stroke-linecap:square;stroke-width:1.5;"/>
    </g>
    <g id="line2d_18"/>
    <g id="text_17">
     <!-- Share Price less Unit Price -->
     <g transform="translate(109.669375 220.760312)scale(0.1 -0.1)">
      <defs>
       <path d="M 3425 4513 
L 3425 3897 
Q 3066 4069 2747 4153 
Q 2428 4238 2131 4238 
Q 1616 4238 1336 4038 
Q 1056 3838 1056 3469 
Q 1056 3159 1242 3001 
Q 1428 2844 1947 2747 
L 2328 2669 
Q 3034 2534 3370 2195 
Q 3706 1856 3706 1288 
Q 3706 609 3251 259 
Q 2797 -91 1919 -91 
Q 1588 -91 1214 -16 
Q 841 59 441 206 
L 441 856 
Q 825 641 1194 531 
Q 1563 422 1919 422 
Q 2459 422 2753 634 
Q 3047 847 3047 1241 
Q 3047 1584 2836 1778 
Q 2625 1972 2144 2069 
L 1759 2144 
Q 1053 2284 737 2584 
Q 422 2884 422 3419 
Q 422 4038 858 4394 
Q 1294 4750 2059 4750 
Q 2388 4750 2728 4690 
Q 3069 4631 3425 4513 
z
" id="DejaVuSans-53" transform="scale(0.015625)"/>
       <path d="M 3513 2113 
L 3513 0 
L 2938 0 
L 2938 2094 
Q 2938 2591 2744 2837 
Q 2550 3084 2163 3084 
Q 1697 3084 1428 2787 
Q 1159 2491 1159 1978 
L 1159 0 
L 581 0 
L 581 4863 
L 1159 4863 
L 1159 2956 
Q 1366 3272 1645 3428 
Q 1925 3584 2291 3584 
Q 2894 3584 3203 3211 
Q 3513 2838 3513 2113 
z
" id="DejaVuSans-68" transform="scale(0.015625)"/>
       <path d="M 2631 2963 
Q 2534 3019 2420 3045 
Q 2306 3072 2169 3072 
Q 1681 3072 1420 2755 
Q 1159 2438 1159 1844 
L 1159 0 
L 581 0 
L 581 3500 
L 1159 3500 
L 1159 2956 
Q 1341 3275 1631 3429 
Q 1922 3584 2338 3584 
Q 2397 3584 2469 3576 
Q 2541 3569 2628 3553 
L 2631 2963 
z
" id="DejaVuSans-72" transform="scale(0.015625)"/>
       <path d="M 1259 4147 
L 1259 2394 
L 2053 2394 
Q 2494 2394 2734 2622 
Q 2975 2850 2975 3272 
Q 2975 3691 2734 3919 
Q 2494 4147 2053 4147 
L 1259 4147 
z
M 628 4666 
L 2053 4666 
Q 2838 4666 3239 4311 
Q 3641 3956 3641 3272 
Q 3641 2581 3239 2228 
Q 2838 1875 2053 1875 
L 1259 1875 
L 1259 0 
L 628 0 
L 628 4666 
z
" id="DejaVuSans-50" transform="scale(0.015625)"/>
       <path d="M 3122 3366 
L 3122 2828 
Q 2878 2963 2633 3030 
Q 2388 3097 2138 3097 
Q 1578 3097 1268 2742 
Q 959 2388 959 1747 
Q 959 1106 1268 751 
Q 1578 397 2138 397 
Q 2388 397 2633 464 
Q 2878 531 3122 666 
L 3122 134 
Q 2881 22 2623 -34 
Q 2366 -91 2075 -91 
Q 1284 -91 818 406 
Q 353 903 353 1747 
Q 353 2603 823 3093 
Q 1294 3584 2113 3584 
Q 2378 3584 2631 3529 
Q 2884 3475 3122 3366 
z
" id="DejaVuSans-63" transform="scale(0.015625)"/>
       <path d="M 2834 3397 
L 2834 2853 
Q 2591 2978 2328 3040 
Q 2066 3103 1784 3103 
Q 1356 3103 1142 2972 
Q 928 2841 928 2578 
Q 928 2378 1081 2264 
Q 1234 2150 1697 2047 
L 1894 2003 
Q 2506 1872 2764 1633 
Q 3022 1394 3022 966 
Q 3022 478 2636 193 
Q 2250 -91 1575 -91 
Q 1294 -91 989 -36 
Q 684 19 347 128 
L 347 722 
Q 666 556 975 473 
Q 1284 391 1588 391 
Q 1994 391 2212 530 
Q 2431 669 2431 922 
Q 2431 1156 2273 1281 
Q 2116 1406 1581 1522 
L 1381 1569 
Q 847 1681 609 1914 
Q 372 2147 372 2553 
Q 372 3047 722 3315 
Q 1072 3584 1716 3584 
Q 2034 3584 2315 3537 
Q 2597 3491 2834 3397 
z
" id="DejaVuSans-73" transform="scale(0.015625)"/>
       <path d="M 556 4666 
L 1191 4666 
L 1191 1831 
Q 1191 1081 1462 751 
Q 1734 422 2344 422 
Q 2950 422 3222 751 
Q 3494 1081 3494 1831 
L 3494 4666 
L 4128 4666 
L 4128 1753 
Q 4128 841 3676 375 
Q 3225 -91 2344 -91 
Q 1459 -91 1007 375 
Q 556 841 556 1753 
L 556 4666 
z
" id="DejaVuSans-55" transform="scale(0.015625)"/>
      </defs>
      <use xlink:href="#DejaVuSans-53"/>
      <use x="63.476562" xlink:href="#DejaVuSans-68"/>
      <use x="126.855469" xlink:href="#DejaVuSans-61"/>
      <use x="188.134766" xlink:href="#DejaVuSans-72"/>
      <use x="226.998047" xlink:href="#DejaVuSans-65"/>
      <use x="288.521484" xlink:href="#DejaVuSans-20"/>
      <use x="320.308594" xlink:href="#DejaVuSans-50"/>
      <use x="378.861328" xlink:href="#DejaVuSans-72"/>
      <use x="419.974609" xlink:href="#DejaVuSans-69"/>
      <use x="447.757812" xlink:href="#DejaVuSans-63"/>
      <use x="502.738281" xlink:href="#DejaVuSans-65"/>
      <use x="564.261719" xlink:href="#DejaVuSans-20"/>
      <use x="596.048828" xlink:href="#DejaVuSans-6c"/>
      <use x="623.832031" xlink:href="#DejaVuSans-65"/>
      <use x="685.355469" xlink:href="#DejaVuSans-73"/>
      <use x="737.455078" xlink:href="#DejaVuSans-73"/>
      <use x="789.554688" xlink:href="#DejaVuSans-20"/>
      <use x="821.341797" xlink:href="#DejaVuSans-55"/>
      <use x="894.535156" xlink:href="#DejaVuSans-6e"/>
      <use x="957.914062" xlink:href="#DejaVuSans-69"/>
      <use x="985.697266" xlink:href="#DejaVuSans-74"/>
      <use x="1024.90625" xlink:href="#DejaVuSans-20"/>
      <use x="1056.693359" xlink:href="#DejaVuSans-50"/>
      <use x="1115.246094" xlink:href="#DejaVuSans-72"/>
      <use x="1156.359375" xlink:href="#DejaVuSans-69"/>
      <use x="1184.142578" xlink:href="#DejaVuSans-63"/>
      <use x="1239.123047" xlink:href="#DejaVuSans-65"/>
     </g>
    </g>
   </g>
  </g>
  <g id="text_18">
   <!-- Spread between price of NZX-listed Fonterra units &amp; Fonterra farmer-shares -->
   <g transform="translate(7.2 16.318125)scale(0.12 -0.12)">
    <defs>
     <path d="M 3116 1747 
Q 3116 2381 2855 2742 
Q 2594 3103 2138 3103 
Q 1681 3103 1420 2742 
Q 1159 2381 1159 1747 
Q 1159 1113 1420 752 
Q 1681 391 2138 391 
Q 2594 391 2855 752 
Q 3116 1113 3116 1747 
z
M 1159 2969 
Q 1341 3281 1617 3432 
Q 1894 3584 2278 3584 
Q 2916 3584 3314 3078 
Q 3713 2572 3713 1747 
Q 3713 922 3314 415 
Q 2916 -91 2278 -91 
Q 1894 -91 1617 61 
Q 1341 213 1159 525 
L 1159 0 
L 581 0 
L 581 4863 
L 1159 4863 
L 1159 2969 
z
" id="DejaVuSans-62" transform="scale(0.015625)"/>
     <path d="M 269 3500 
L 844 3500 
L 1563 769 
L 2278 3500 
L 2956 3500 
L 3675 769 
L 4391 3500 
L 4966 3500 
L 4050 0 
L 3372 0 
L 2619 2869 
L 1863 0 
L 1184 0 
L 269 3500 
z
" id="DejaVuSans-77" transform="scale(0.015625)"/>
     <path d="M 1959 3097 
Q 1497 3097 1228 2736 
Q 959 2375 959 1747 
Q 959 1119 1226 758 
Q 1494 397 1959 397 
Q 2419 397 2687 759 
Q 2956 1122 2956 1747 
Q 2956 2369 2687 2733 
Q 2419 3097 1959 3097 
z
M 1959 3584 
Q 2709 3584 3137 3096 
Q 3566 2609 3566 1747 
Q 3566 888 3137 398 
Q 2709 -91 1959 -91 
Q 1206 -91 779 398 
Q 353 888 353 1747 
Q 353 2609 779 3096 
Q 1206 3584 1959 3584 
z
" id="DejaVuSans-6f" transform="scale(0.015625)"/>
     <path d="M 2375 4863 
L 2375 4384 
L 1825 4384 
Q 1516 4384 1395 4259 
Q 1275 4134 1275 3809 
L 1275 3500 
L 2222 3500 
L 2222 3053 
L 1275 3053 
L 1275 0 
L 697 0 
L 697 3053 
L 147 3053 
L 147 3500 
L 697 3500 
L 697 3744 
Q 697 4328 969 4595 
Q 1241 4863 1831 4863 
L 2375 4863 
z
" id="DejaVuSans-66" transform="scale(0.015625)"/>
     <path d="M 628 4666 
L 1478 4666 
L 3547 763 
L 3547 4666 
L 4159 4666 
L 4159 0 
L 3309 0 
L 1241 3903 
L 1241 0 
L 628 0 
L 628 4666 
z
" id="DejaVuSans-4e" transform="scale(0.015625)"/>
     <path d="M 359 4666 
L 4025 4666 
L 4025 4184 
L 1075 531 
L 4097 531 
L 4097 0 
L 288 0 
L 288 481 
L 3238 4134 
L 359 4134 
L 359 4666 
z
" id="DejaVuSans-5a" transform="scale(0.015625)"/>
     <path d="M 403 4666 
L 1081 4666 
L 2241 2931 
L 3406 4666 
L 4084 4666 
L 2584 2425 
L 4184 0 
L 3506 0 
L 2194 1984 
L 872 0 
L 191 0 
L 1856 2491 
L 403 4666 
z
" id="DejaVuSans-58" transform="scale(0.015625)"/>
     <path d="M 628 4666 
L 3309 4666 
L 3309 4134 
L 1259 4134 
L 1259 2759 
L 3109 2759 
L 3109 2228 
L 1259 2228 
L 1259 0 
L 628 0 
L 628 4666 
z
" id="DejaVuSans-46" transform="scale(0.015625)"/>
     <path d="M 544 1381 
L 544 3500 
L 1119 3500 
L 1119 1403 
Q 1119 906 1312 657 
Q 1506 409 1894 409 
Q 2359 409 2629 706 
Q 2900 1003 2900 1516 
L 2900 3500 
L 3475 3500 
L 3475 0 
L 2900 0 
L 2900 538 
Q 2691 219 2414 64 
Q 2138 -91 1772 -91 
Q 1169 -91 856 284 
Q 544 659 544 1381 
z
M 1991 3584 
L 1991 3584 
z
" id="DejaVuSans-75" transform="scale(0.015625)"/>
     <path d="M 1556 2509 
Q 1272 2256 1139 2004 
Q 1006 1753 1006 1478 
Q 1006 1022 1337 719 
Q 1669 416 2169 416 
Q 2466 416 2725 514 
Q 2984 613 3213 813 
L 1556 2509 
z
M 1997 2859 
L 3584 1234 
Q 3769 1513 3872 1830 
Q 3975 2147 3994 2503 
L 4575 2503 
Q 4538 2091 4375 1687 
Q 4213 1284 3922 891 
L 4794 0 
L 4006 0 
L 3559 459 
Q 3234 181 2878 45 
Q 2522 -91 2113 -91 
Q 1359 -91 881 339 
Q 403 769 403 1441 
Q 403 1841 612 2192 
Q 822 2544 1241 2853 
Q 1091 3050 1012 3245 
Q 934 3441 934 3628 
Q 934 4134 1281 4442 
Q 1628 4750 2203 4750 
Q 2463 4750 2720 4694 
Q 2978 4638 3244 4525 
L 3244 3956 
Q 2972 4103 2725 4179 
Q 2478 4256 2266 4256 
Q 1938 4256 1733 4082 
Q 1528 3909 1528 3634 
Q 1528 3475 1620 3314 
Q 1713 3153 1997 2859 
z
" id="DejaVuSans-26" transform="scale(0.015625)"/>
    </defs>
    <use xlink:href="#DejaVuSans-53"/>
    <use x="63.476562" xlink:href="#DejaVuSans-70"/>
    <use x="126.953125" xlink:href="#DejaVuSans-72"/>
    <use x="165.816406" xlink:href="#DejaVuSans-65"/>
    <use x="227.339844" xlink:href="#DejaVuSans-61"/>
    <use x="288.619141" xlink:href="#DejaVuSans-64"/>
    <use x="352.095703" xlink:href="#DejaVuSans-20"/>
    <use x="383.882812" xlink:href="#DejaVuSans-62"/>
    <use x="447.359375" xlink:href="#DejaVuSans-65"/>
    <use x="508.882812" xlink:href="#DejaVuSans-74"/>
    <use x="548.091797" xlink:href="#DejaVuSans-77"/>
    <use x="629.878906" xlink:href="#DejaVuSans-65"/>
    <use x="691.402344" xlink:href="#DejaVuSans-65"/>
    <use x="752.925781" xlink:href="#DejaVuSans-6e"/>
    <use x="816.304688" xlink:href="#DejaVuSans-20"/>
    <use x="848.091797" xlink:href="#DejaVuSans-70"/>
    <use x="911.568359" xlink:href="#DejaVuSans-72"/>
    <use x="952.681641" xlink:href="#DejaVuSans-69"/>
    <use x="980.464844" xlink:href="#DejaVuSans-63"/>
    <use x="1035.445312" xlink:href="#DejaVuSans-65"/>
    <use x="1096.96875" xlink:href="#DejaVuSans-20"/>
    <use x="1128.755859" xlink:href="#DejaVuSans-6f"/>
    <use x="1189.9375" xlink:href="#DejaVuSans-66"/>
    <use x="1225.142578" xlink:href="#DejaVuSans-20"/>
    <use x="1256.929688" xlink:href="#DejaVuSans-4e"/>
    <use x="1331.734375" xlink:href="#DejaVuSans-5a"/>
    <use x="1400.240234" xlink:href="#DejaVuSans-58"/>
    <use x="1463.746094" xlink:href="#DejaVuSans-2d"/>
    <use x="1499.830078" xlink:href="#DejaVuSans-6c"/>
    <use x="1527.613281" xlink:href="#DejaVuSans-69"/>
    <use x="1555.396484" xlink:href="#DejaVuSans-73"/>
    <use x="1607.496094" xlink:href="#DejaVuSans-74"/>
    <use x="1646.705078" xlink:href="#DejaVuSans-65"/>
    <use x="1708.228516" xlink:href="#DejaVuSans-64"/>
    <use x="1771.705078" xlink:href="#DejaVuSans-20"/>
    <use x="1803.492188" xlink:href="#DejaVuSans-46"/>
    <use x="1857.386719" xlink:href="#DejaVuSans-6f"/>
    <use x="1918.568359" xlink:href="#DejaVuSans-6e"/>
    <use x="1981.947266" xlink:href="#DejaVuSans-74"/>
    <use x="2021.15625" xlink:href="#DejaVuSans-65"/>
    <use x="2082.679688" xlink:href="#DejaVuSans-72"/>
    <use x="2122.042969" xlink:href="#DejaVuSans-72"/>
    <use x="2163.15625" xlink:href="#DejaVuSans-61"/>
    <use x="2224.435547" xlink:href="#DejaVuSans-20"/>
    <use x="2256.222656" xlink:href="#DejaVuSans-75"/>
    <use x="2319.601562" xlink:href="#DejaVuSans-6e"/>
    <use x="2382.980469" xlink:href="#DejaVuSans-69"/>
    <use x="2410.763672" xlink:href="#DejaVuSans-74"/>
    <use x="2449.972656" xlink:href="#DejaVuSans-73"/>
    <use x="2502.072266" xlink:href="#DejaVuSans-20"/>
    <use x="2533.859375" xlink:href="#DejaVuSans-26"/>
    <use x="2611.837891" xlink:href="#DejaVuSans-20"/>
    <use x="2643.625" xlink:href="#DejaVuSans-46"/>
    <use x="2697.519531" xlink:href="#DejaVuSans-6f"/>
    <use x="2758.701172" xlink:href="#DejaVuSans-6e"/>
    <use x="2822.080078" xlink:href="#DejaVuSans-74"/>
    <use x="2861.289062" xlink:href="#DejaVuSans-65"/>
    <use x="2922.8125" xlink:href="#DejaVuSans-72"/>
    <use x="2962.175781" xlink:href="#DejaVuSans-72"/>
    <use x="3003.289062" xlink:href="#DejaVuSans-61"/>
    <use x="3064.568359" xlink:href="#DejaVuSans-20"/>
    <use x="3096.355469" xlink:href="#DejaVuSans-66"/>
    <use x="3131.560547" xlink:href="#DejaVuSans-61"/>
    <use x="3192.839844" xlink:href="#DejaVuSans-72"/>
    <use x="3232.203125" xlink:href="#DejaVuSans-6d"/>
    <use x="3329.615234" xlink:href="#DejaVuSans-65"/>
    <use x="3391.138672" xlink:href="#DejaVuSans-72"/>
    <use x="3425.876953" xlink:href="#DejaVuSans-2d"/>
    <use x="3461.960938" xlink:href="#DejaVuSans-73"/>
    <use x="3514.060547" xlink:href="#DejaVuSans-68"/>
    <use x="3577.439453" xlink:href="#DejaVuSans-61"/>
    <use x="3638.71875" xlink:href="#DejaVuSans-72"/>
    <use x="3677.582031" xlink:href="#DejaVuSans-65"/>
    <use x="3739.105469" xlink:href="#DejaVuSans-73"/>
   </g>
  </g>
 </g>
 <defs>
  <clipPath id="p231f039f8e">
   <rect height="195.84" width="334.8" x="72.669375" y="36"/>
  </clipPath>
 </defs>
</svg>
