<?xml version="1.0" encoding="utf-8" standalone="no"?>
<!DOCTYPE svg PUBLIC "-//W3C//DTD SVG 1.1//EN"
  "http://www.w3.org/Graphics/SVG/1.1/DTD/svg11.dtd">
<svg height="288.991033pt" version="1.1" viewBox="0 0 377.586562 288.991033" width="377.586562pt" xmlns="http://www.w3.org/2000/svg" xmlns:xlink="http://www.w3.org/1999/xlink">
 <metadata>
  <rdf:RDF xmlns:cc="http://creativecommons.org/ns#" xmlns:dc="http://purl.org/dc/elements/1.1/" xmlns:rdf="http://www.w3.org/1999/02/22-rdf-syntax-ns#">
   <cc:Work>
    <dc:type rdf:resource="http://purl.org/dc/dcmitype/StillImage"/>
    <dc:date>2021-08-09T22:41:43.090377</dc:date>
    <dc:format>image/svg+xml</dc:format>
    <dc:creator>
     <cc:Agent>
      <dc:title>Matplotlib v3.4.2, https://matplotlib.org/</dc:title>
     </cc:Agent>
    </dc:creator>
   </cc:Work>
  </rdf:RDF>
 </metadata>
 <defs>
  <style type="text/css">*{stroke-linecap:butt;stroke-linejoin:round;}</style>
 </defs>
 <g id="figure_1">
  <g id="patch_1">
   <path d="M 0 288.991033 
L 377.586562 288.991033 
L 377.586562 0 
L 0 0 
z
" style="fill:none;"/>
  </g>
  <g id="axes_1">
   <g id="patch_2">
    <path d="M 30.103125 231.84 
L 364.903125 231.84 
L 364.903125 36 
L 30.103125 36 
z
" style="fill:#ffffff;"/>
   </g>
   <g id="matplotlib.axis_1">
    <g id="xtick_1">
     <g id="line2d_1">
      <defs>
       <path d="M 0 0 
L 0 3.5 
" id="mbf10a08a9d" style="stroke:#000000;stroke-width:0.8;"/>
      </defs>
      <g>
       <use style="stroke:#000000;stroke-width:0.8;" x="54.51726" xlink:href="#mbf10a08a9d" y="231.84"/>
      </g>
     </g>
     <g id="text_1">
      <!-- 2018-01 -->
      <g transform="translate(17.29244 266.311846)rotate(-30)scale(0.1 -0.1)">
       <defs>
        <path d="M 1228 531 
L 3431 531 
L 3431 0 
L 469 0 
L 469 531 
Q 828 903 1448 1529 
Q 2069 2156 2228 2338 
Q 2531 2678 2651 2914 
Q 2772 3150 2772 3378 
Q 2772 3750 2511 3984 
Q 2250 4219 1831 4219 
Q 1534 4219 1204 4116 
Q 875 4013 500 3803 
L 500 4441 
Q 881 4594 1212 4672 
Q 1544 4750 1819 4750 
Q 2544 4750 2975 4387 
Q 3406 4025 3406 3419 
Q 3406 3131 3298 2873 
Q 3191 2616 2906 2266 
Q 2828 2175 2409 1742 
Q 1991 1309 1228 531 
z
" id="DejaVuSans-32" transform="scale(0.015625)"/>
        <path d="M 2034 4250 
Q 1547 4250 1301 3770 
Q 1056 3291 1056 2328 
Q 1056 1369 1301 889 
Q 1547 409 2034 409 
Q 2525 409 2770 889 
Q 3016 1369 3016 2328 
Q 3016 3291 2770 3770 
Q 2525 4250 2034 4250 
z
M 2034 4750 
Q 2819 4750 3233 4129 
Q 3647 3509 3647 2328 
Q 3647 1150 3233 529 
Q 2819 -91 2034 -91 
Q 1250 -91 836 529 
Q 422 1150 422 2328 
Q 422 3509 836 4129 
Q 1250 4750 2034 4750 
z
" id="DejaVuSans-30" transform="scale(0.015625)"/>
        <path d="M 794 531 
L 1825 531 
L 1825 4091 
L 703 3866 
L 703 4441 
L 1819 4666 
L 2450 4666 
L 2450 531 
L 3481 531 
L 3481 0 
L 794 0 
L 794 531 
z
" id="DejaVuSans-31" transform="scale(0.015625)"/>
        <path d="M 2034 2216 
Q 1584 2216 1326 1975 
Q 1069 1734 1069 1313 
Q 1069 891 1326 650 
Q 1584 409 2034 409 
Q 2484 409 2743 651 
Q 3003 894 3003 1313 
Q 3003 1734 2745 1975 
Q 2488 2216 2034 2216 
z
M 1403 2484 
Q 997 2584 770 2862 
Q 544 3141 544 3541 
Q 544 4100 942 4425 
Q 1341 4750 2034 4750 
Q 2731 4750 3128 4425 
Q 3525 4100 3525 3541 
Q 3525 3141 3298 2862 
Q 3072 2584 2669 2484 
Q 3125 2378 3379 2068 
Q 3634 1759 3634 1313 
Q 3634 634 3220 271 
Q 2806 -91 2034 -91 
Q 1263 -91 848 271 
Q 434 634 434 1313 
Q 434 1759 690 2068 
Q 947 2378 1403 2484 
z
M 1172 3481 
Q 1172 3119 1398 2916 
Q 1625 2713 2034 2713 
Q 2441 2713 2670 2916 
Q 2900 3119 2900 3481 
Q 2900 3844 2670 4047 
Q 2441 4250 2034 4250 
Q 1625 4250 1398 4047 
Q 1172 3844 1172 3481 
z
" id="DejaVuSans-38" transform="scale(0.015625)"/>
        <path d="M 313 2009 
L 1997 2009 
L 1997 1497 
L 313 1497 
L 313 2009 
z
" id="DejaVuSans-2d" transform="scale(0.015625)"/>
       </defs>
       <use xlink:href="#DejaVuSans-32"/>
       <use x="63.623047" xlink:href="#DejaVuSans-30"/>
       <use x="127.246094" xlink:href="#DejaVuSans-31"/>
       <use x="190.869141" xlink:href="#DejaVuSans-38"/>
       <use x="254.492188" xlink:href="#DejaVuSans-2d"/>
       <use x="290.576172" xlink:href="#DejaVuSans-30"/>
       <use x="354.199219" xlink:href="#DejaVuSans-31"/>
      </g>
     </g>
    </g>
    <g id="xtick_2">
     <g id="line2d_2">
      <g>
       <use style="stroke:#000000;stroke-width:0.8;" x="95.114031" xlink:href="#mbf10a08a9d" y="231.84"/>
      </g>
     </g>
     <g id="text_2">
      <!-- 2018-07 -->
      <g transform="translate(57.889211 266.311846)rotate(-30)scale(0.1 -0.1)">
       <defs>
        <path d="M 525 4666 
L 3525 4666 
L 3525 4397 
L 1831 0 
L 1172 0 
L 2766 4134 
L 525 4134 
L 525 4666 
z
" id="DejaVuSans-37" transform="scale(0.015625)"/>
       </defs>
       <use xlink:href="#DejaVuSans-32"/>
       <use x="63.623047" xlink:href="#DejaVuSans-30"/>
       <use x="127.246094" xlink:href="#DejaVuSans-31"/>
       <use x="190.869141" xlink:href="#DejaVuSans-38"/>
       <use x="254.492188" xlink:href="#DejaVuSans-2d"/>
       <use x="290.576172" xlink:href="#DejaVuSans-30"/>
       <use x="354.199219" xlink:href="#DejaVuSans-37"/>
      </g>
     </g>
    </g>
    <g id="xtick_3">
     <g id="line2d_3">
      <g>
       <use style="stroke:#000000;stroke-width:0.8;" x="136.383677" xlink:href="#mbf10a08a9d" y="231.84"/>
      </g>
     </g>
     <g id="text_3">
      <!-- 2019-01 -->
      <g transform="translate(99.158856 266.311846)rotate(-30)scale(0.1 -0.1)">
       <defs>
        <path d="M 703 97 
L 703 672 
Q 941 559 1184 500 
Q 1428 441 1663 441 
Q 2288 441 2617 861 
Q 2947 1281 2994 2138 
Q 2813 1869 2534 1725 
Q 2256 1581 1919 1581 
Q 1219 1581 811 2004 
Q 403 2428 403 3163 
Q 403 3881 828 4315 
Q 1253 4750 1959 4750 
Q 2769 4750 3195 4129 
Q 3622 3509 3622 2328 
Q 3622 1225 3098 567 
Q 2575 -91 1691 -91 
Q 1453 -91 1209 -44 
Q 966 3 703 97 
z
M 1959 2075 
Q 2384 2075 2632 2365 
Q 2881 2656 2881 3163 
Q 2881 3666 2632 3958 
Q 2384 4250 1959 4250 
Q 1534 4250 1286 3958 
Q 1038 3666 1038 3163 
Q 1038 2656 1286 2365 
Q 1534 2075 1959 2075 
z
" id="DejaVuSans-39" transform="scale(0.015625)"/>
       </defs>
       <use xlink:href="#DejaVuSans-32"/>
       <use x="63.623047" xlink:href="#DejaVuSans-30"/>
       <use x="127.246094" xlink:href="#DejaVuSans-31"/>
       <use x="190.869141" xlink:href="#DejaVuSans-39"/>
       <use x="254.492188" xlink:href="#DejaVuSans-2d"/>
       <use x="290.576172" xlink:href="#DejaVuSans-30"/>
       <use x="354.199219" xlink:href="#DejaVuSans-31"/>
      </g>
     </g>
    </g>
    <g id="xtick_4">
     <g id="line2d_4">
      <g>
       <use style="stroke:#000000;stroke-width:0.8;" x="176.980448" xlink:href="#mbf10a08a9d" y="231.84"/>
      </g>
     </g>
     <g id="text_4">
      <!-- 2019-07 -->
      <g transform="translate(139.755627 266.311846)rotate(-30)scale(0.1 -0.1)">
       <use xlink:href="#DejaVuSans-32"/>
       <use x="63.623047" xlink:href="#DejaVuSans-30"/>
       <use x="127.246094" xlink:href="#DejaVuSans-31"/>
       <use x="190.869141" xlink:href="#DejaVuSans-39"/>
       <use x="254.492188" xlink:href="#DejaVuSans-2d"/>
       <use x="290.576172" xlink:href="#DejaVuSans-30"/>
       <use x="354.199219" xlink:href="#DejaVuSans-37"/>
      </g>
     </g>
    </g>
    <g id="xtick_5">
     <g id="line2d_5">
      <g>
       <use style="stroke:#000000;stroke-width:0.8;" x="218.250094" xlink:href="#mbf10a08a9d" y="231.84"/>
      </g>
     </g>
     <g id="text_5">
      <!-- 2020-01 -->
      <g transform="translate(181.025273 266.311846)rotate(-30)scale(0.1 -0.1)">
       <use xlink:href="#DejaVuSans-32"/>
       <use x="63.623047" xlink:href="#DejaVuSans-30"/>
       <use x="127.246094" xlink:href="#DejaVuSans-32"/>
       <use x="190.869141" xlink:href="#DejaVuSans-30"/>
       <use x="254.492188" xlink:href="#DejaVuSans-2d"/>
       <use x="290.576172" xlink:href="#DejaVuSans-30"/>
       <use x="354.199219" xlink:href="#DejaVuSans-31"/>
      </g>
     </g>
    </g>
    <g id="xtick_6">
     <g id="line2d_6">
      <g>
       <use style="stroke:#000000;stroke-width:0.8;" x="259.071156" xlink:href="#mbf10a08a9d" y="231.84"/>
      </g>
     </g>
     <g id="text_6">
      <!-- 2020-07 -->
      <g transform="translate(221.846335 266.311846)rotate(-30)scale(0.1 -0.1)">
       <use xlink:href="#DejaVuSans-32"/>
       <use x="63.623047" xlink:href="#DejaVuSans-30"/>
       <use x="127.246094" xlink:href="#DejaVuSans-32"/>
       <use x="190.869141" xlink:href="#DejaVuSans-30"/>
       <use x="254.492188" xlink:href="#DejaVuSans-2d"/>
       <use x="290.576172" xlink:href="#DejaVuSans-30"/>
       <use x="354.199219" xlink:href="#DejaVuSans-37"/>
      </g>
     </g>
    </g>
    <g id="xtick_7">
     <g id="line2d_7">
      <g>
       <use style="stroke:#000000;stroke-width:0.8;" x="300.340802" xlink:href="#mbf10a08a9d" y="231.84"/>
      </g>
     </g>
     <g id="text_7">
      <!-- 2021-01 -->
      <g transform="translate(263.115981 266.311846)rotate(-30)scale(0.1 -0.1)">
       <use xlink:href="#DejaVuSans-32"/>
       <use x="63.623047" xlink:href="#DejaVuSans-30"/>
       <use x="127.246094" xlink:href="#DejaVuSans-32"/>
       <use x="190.869141" xlink:href="#DejaVuSans-31"/>
       <use x="254.492188" xlink:href="#DejaVuSans-2d"/>
       <use x="290.576172" xlink:href="#DejaVuSans-30"/>
       <use x="354.199219" xlink:href="#DejaVuSans-31"/>
      </g>
     </g>
    </g>
    <g id="xtick_8">
     <g id="line2d_8">
      <g>
       <use style="stroke:#000000;stroke-width:0.8;" x="340.937573" xlink:href="#mbf10a08a9d" y="231.84"/>
      </g>
     </g>
     <g id="text_8">
      <!-- 2021-07 -->
      <g transform="translate(303.712752 266.311846)rotate(-30)scale(0.1 -0.1)">
       <use xlink:href="#DejaVuSans-32"/>
       <use x="63.623047" xlink:href="#DejaVuSans-30"/>
       <use x="127.246094" xlink:href="#DejaVuSans-32"/>
       <use x="190.869141" xlink:href="#DejaVuSans-31"/>
       <use x="254.492188" xlink:href="#DejaVuSans-2d"/>
       <use x="290.576172" xlink:href="#DejaVuSans-30"/>
       <use x="354.199219" xlink:href="#DejaVuSans-37"/>
      </g>
     </g>
    </g>
    <g id="text_9">
     <!-- date -->
     <g transform="translate(186.228125 279.711346)scale(0.1 -0.1)">
      <defs>
       <path d="M 2906 2969 
L 2906 4863 
L 3481 4863 
L 3481 0 
L 2906 0 
L 2906 525 
Q 2725 213 2448 61 
Q 2172 -91 1784 -91 
Q 1150 -91 751 415 
Q 353 922 353 1747 
Q 353 2572 751 3078 
Q 1150 3584 1784 3584 
Q 2172 3584 2448 3432 
Q 2725 3281 2906 2969 
z
M 947 1747 
Q 947 1113 1208 752 
Q 1469 391 1925 391 
Q 2381 391 2643 752 
Q 2906 1113 2906 1747 
Q 2906 2381 2643 2742 
Q 2381 3103 1925 3103 
Q 1469 3103 1208 2742 
Q 947 2381 947 1747 
z
" id="DejaVuSans-64" transform="scale(0.015625)"/>
       <path d="M 2194 1759 
Q 1497 1759 1228 1600 
Q 959 1441 959 1056 
Q 959 750 1161 570 
Q 1363 391 1709 391 
Q 2188 391 2477 730 
Q 2766 1069 2766 1631 
L 2766 1759 
L 2194 1759 
z
M 3341 1997 
L 3341 0 
L 2766 0 
L 2766 531 
Q 2569 213 2275 61 
Q 1981 -91 1556 -91 
Q 1019 -91 701 211 
Q 384 513 384 1019 
Q 384 1609 779 1909 
Q 1175 2209 1959 2209 
L 2766 2209 
L 2766 2266 
Q 2766 2663 2505 2880 
Q 2244 3097 1772 3097 
Q 1472 3097 1187 3025 
Q 903 2953 641 2809 
L 641 3341 
Q 956 3463 1253 3523 
Q 1550 3584 1831 3584 
Q 2591 3584 2966 3190 
Q 3341 2797 3341 1997 
z
" id="DejaVuSans-61" transform="scale(0.015625)"/>
       <path d="M 1172 4494 
L 1172 3500 
L 2356 3500 
L 2356 3053 
L 1172 3053 
L 1172 1153 
Q 1172 725 1289 603 
Q 1406 481 1766 481 
L 2356 481 
L 2356 0 
L 1766 0 
Q 1100 0 847 248 
Q 594 497 594 1153 
L 594 3053 
L 172 3053 
L 172 3500 
L 594 3500 
L 594 4494 
L 1172 4494 
z
" id="DejaVuSans-74" transform="scale(0.015625)"/>
       <path d="M 3597 1894 
L 3597 1613 
L 953 1613 
Q 991 1019 1311 708 
Q 1631 397 2203 397 
Q 2534 397 2845 478 
Q 3156 559 3463 722 
L 3463 178 
Q 3153 47 2828 -22 
Q 2503 -91 2169 -91 
Q 1331 -91 842 396 
Q 353 884 353 1716 
Q 353 2575 817 3079 
Q 1281 3584 2069 3584 
Q 2775 3584 3186 3129 
Q 3597 2675 3597 1894 
z
M 3022 2063 
Q 3016 2534 2758 2815 
Q 2500 3097 2075 3097 
Q 1594 3097 1305 2825 
Q 1016 2553 972 2059 
L 3022 2063 
z
" id="DejaVuSans-65" transform="scale(0.015625)"/>
      </defs>
      <use xlink:href="#DejaVuSans-64"/>
      <use x="63.476562" xlink:href="#DejaVuSans-61"/>
      <use x="124.755859" xlink:href="#DejaVuSans-74"/>
      <use x="163.964844" xlink:href="#DejaVuSans-65"/>
     </g>
    </g>
   </g>
   <g id="matplotlib.axis_2">
    <g id="ytick_1">
     <g id="line2d_9">
      <defs>
       <path d="M 0 0 
L -3.5 0 
" id="m916afb6497" style="stroke:#000000;stroke-width:0.8;"/>
      </defs>
      <g>
       <use style="stroke:#000000;stroke-width:0.8;" x="30.103125" xlink:href="#m916afb6497" y="213.761112"/>
      </g>
     </g>
     <g id="text_10">
      <!-- 3.0 -->
      <g transform="translate(7.2 217.560331)scale(0.1 -0.1)">
       <defs>
        <path d="M 2597 2516 
Q 3050 2419 3304 2112 
Q 3559 1806 3559 1356 
Q 3559 666 3084 287 
Q 2609 -91 1734 -91 
Q 1441 -91 1130 -33 
Q 819 25 488 141 
L 488 750 
Q 750 597 1062 519 
Q 1375 441 1716 441 
Q 2309 441 2620 675 
Q 2931 909 2931 1356 
Q 2931 1769 2642 2001 
Q 2353 2234 1838 2234 
L 1294 2234 
L 1294 2753 
L 1863 2753 
Q 2328 2753 2575 2939 
Q 2822 3125 2822 3475 
Q 2822 3834 2567 4026 
Q 2313 4219 1838 4219 
Q 1578 4219 1281 4162 
Q 984 4106 628 3988 
L 628 4550 
Q 988 4650 1302 4700 
Q 1616 4750 1894 4750 
Q 2613 4750 3031 4423 
Q 3450 4097 3450 3541 
Q 3450 3153 3228 2886 
Q 3006 2619 2597 2516 
z
" id="DejaVuSans-33" transform="scale(0.015625)"/>
        <path d="M 684 794 
L 1344 794 
L 1344 0 
L 684 0 
L 684 794 
z
" id="DejaVuSans-2e" transform="scale(0.015625)"/>
       </defs>
       <use xlink:href="#DejaVuSans-33"/>
       <use x="63.623047" xlink:href="#DejaVuSans-2e"/>
       <use x="95.410156" xlink:href="#DejaVuSans-30"/>
      </g>
     </g>
    </g>
    <g id="ytick_2">
     <g id="line2d_10">
      <g>
       <use style="stroke:#000000;stroke-width:0.8;" x="30.103125" xlink:href="#m916afb6497" y="190.818294"/>
      </g>
     </g>
     <g id="text_11">
      <!-- 3.5 -->
      <g transform="translate(7.2 194.617513)scale(0.1 -0.1)">
       <defs>
        <path d="M 691 4666 
L 3169 4666 
L 3169 4134 
L 1269 4134 
L 1269 2991 
Q 1406 3038 1543 3061 
Q 1681 3084 1819 3084 
Q 2600 3084 3056 2656 
Q 3513 2228 3513 1497 
Q 3513 744 3044 326 
Q 2575 -91 1722 -91 
Q 1428 -91 1123 -41 
Q 819 9 494 109 
L 494 744 
Q 775 591 1075 516 
Q 1375 441 1709 441 
Q 2250 441 2565 725 
Q 2881 1009 2881 1497 
Q 2881 1984 2565 2268 
Q 2250 2553 1709 2553 
Q 1456 2553 1204 2497 
Q 953 2441 691 2322 
L 691 4666 
z
" id="DejaVuSans-35" transform="scale(0.015625)"/>
       </defs>
       <use xlink:href="#DejaVuSans-33"/>
       <use x="63.623047" xlink:href="#DejaVuSans-2e"/>
       <use x="95.410156" xlink:href="#DejaVuSans-35"/>
      </g>
     </g>
    </g>
    <g id="ytick_3">
     <g id="line2d_11">
      <g>
       <use style="stroke:#000000;stroke-width:0.8;" x="30.103125" xlink:href="#m916afb6497" y="167.875476"/>
      </g>
     </g>
     <g id="text_12">
      <!-- 4.0 -->
      <g transform="translate(7.2 171.674695)scale(0.1 -0.1)">
       <defs>
        <path d="M 2419 4116 
L 825 1625 
L 2419 1625 
L 2419 4116 
z
M 2253 4666 
L 3047 4666 
L 3047 1625 
L 3713 1625 
L 3713 1100 
L 3047 1100 
L 3047 0 
L 2419 0 
L 2419 1100 
L 313 1100 
L 313 1709 
L 2253 4666 
z
" id="DejaVuSans-34" transform="scale(0.015625)"/>
       </defs>
       <use xlink:href="#DejaVuSans-34"/>
       <use x="63.623047" xlink:href="#DejaVuSans-2e"/>
       <use x="95.410156" xlink:href="#DejaVuSans-30"/>
      </g>
     </g>
    </g>
    <g id="ytick_4">
     <g id="line2d_12">
      <g>
       <use style="stroke:#000000;stroke-width:0.8;" x="30.103125" xlink:href="#m916afb6497" y="144.932658"/>
      </g>
     </g>
     <g id="text_13">
      <!-- 4.5 -->
      <g transform="translate(7.2 148.731877)scale(0.1 -0.1)">
       <use xlink:href="#DejaVuSans-34"/>
       <use x="63.623047" xlink:href="#DejaVuSans-2e"/>
       <use x="95.410156" xlink:href="#DejaVuSans-35"/>
      </g>
     </g>
    </g>
    <g id="ytick_5">
     <g id="line2d_13">
      <g>
       <use style="stroke:#000000;stroke-width:0.8;" x="30.103125" xlink:href="#m916afb6497" y="121.98984"/>
      </g>
     </g>
     <g id="text_14">
      <!-- 5.0 -->
      <g transform="translate(7.2 125.789059)scale(0.1 -0.1)">
       <use xlink:href="#DejaVuSans-35"/>
       <use x="63.623047" xlink:href="#DejaVuSans-2e"/>
       <use x="95.410156" xlink:href="#DejaVuSans-30"/>
      </g>
     </g>
    </g>
    <g id="ytick_6">
     <g id="line2d_14">
      <g>
       <use style="stroke:#000000;stroke-width:0.8;" x="30.103125" xlink:href="#m916afb6497" y="99.047022"/>
      </g>
     </g>
     <g id="text_15">
      <!-- 5.5 -->
      <g transform="translate(7.2 102.846241)scale(0.1 -0.1)">
       <use xlink:href="#DejaVuSans-35"/>
       <use x="63.623047" xlink:href="#DejaVuSans-2e"/>
       <use x="95.410156" xlink:href="#DejaVuSans-35"/>
      </g>
     </g>
    </g>
    <g id="ytick_7">
     <g id="line2d_15">
      <g>
       <use style="stroke:#000000;stroke-width:0.8;" x="30.103125" xlink:href="#m916afb6497" y="76.104205"/>
      </g>
     </g>
     <g id="text_16">
      <!-- 6.0 -->
      <g transform="translate(7.2 79.903423)scale(0.1 -0.1)">
       <defs>
        <path d="M 2113 2584 
Q 1688 2584 1439 2293 
Q 1191 2003 1191 1497 
Q 1191 994 1439 701 
Q 1688 409 2113 409 
Q 2538 409 2786 701 
Q 3034 994 3034 1497 
Q 3034 2003 2786 2293 
Q 2538 2584 2113 2584 
z
M 3366 4563 
L 3366 3988 
Q 3128 4100 2886 4159 
Q 2644 4219 2406 4219 
Q 1781 4219 1451 3797 
Q 1122 3375 1075 2522 
Q 1259 2794 1537 2939 
Q 1816 3084 2150 3084 
Q 2853 3084 3261 2657 
Q 3669 2231 3669 1497 
Q 3669 778 3244 343 
Q 2819 -91 2113 -91 
Q 1303 -91 875 529 
Q 447 1150 447 2328 
Q 447 3434 972 4092 
Q 1497 4750 2381 4750 
Q 2619 4750 2861 4703 
Q 3103 4656 3366 4563 
z
" id="DejaVuSans-36" transform="scale(0.015625)"/>
       </defs>
       <use xlink:href="#DejaVuSans-36"/>
       <use x="63.623047" xlink:href="#DejaVuSans-2e"/>
       <use x="95.410156" xlink:href="#DejaVuSans-30"/>
      </g>
     </g>
    </g>
    <g id="ytick_8">
     <g id="line2d_16">
      <g>
       <use style="stroke:#000000;stroke-width:0.8;" x="30.103125" xlink:href="#m916afb6497" y="53.161387"/>
      </g>
     </g>
     <g id="text_17">
      <!-- 6.5 -->
      <g transform="translate(7.2 56.960605)scale(0.1 -0.1)">
       <use xlink:href="#DejaVuSans-36"/>
       <use x="63.623047" xlink:href="#DejaVuSans-2e"/>
       <use x="95.410156" xlink:href="#DejaVuSans-35"/>
      </g>
     </g>
    </g>
   </g>
   <g id="line2d_17">
    <path clip-path="url(#p1634fb1be9)" d="M 45.321307 61.420742 
L 45.76989 60.503038 
L 45.994181 60.503038 
L 46.667056 60.044063 
L 46.891348 59.585334 
L 47.115639 60.503038 
L 47.339931 59.585334 
L 47.564222 57.749925 
L 48.237097 61.420742 
L 48.909972 57.749925 
L 49.134263 59.585334 
L 50.031429 58.208654 
L 50.255721 57.749925 
L 50.480013 57.749925 
L 50.704304 58.208654 
L 51.377179 59.126358 
L 51.825762 57.749925 
L 53.620094 57.749925 
L 53.844386 58.208654 
L 54.965844 58.667629 
L 55.414427 57.29095 
L 56.087301 56.373245 
L 56.760176 48.572882 
L 56.984468 44.901818 
L 57.657342 52.702428 
L 57.881634 52.702428 
L 58.105925 53.161403 
L 58.330217 52.702428 
L 58.554508 52.702428 
L 59.227383 54.079108 
L 59.451675 54.996812 
L 59.675966 54.996812 
L 60.124549 57.749925 
L 60.797424 58.667629 
L 61.021715 60.503038 
L 61.246007 66.468239 
L 61.69459 62.797422 
L 62.367465 65.09156 
L 62.816048 69.221352 
L 63.040339 67.385944 
L 63.264631 70.597786 
L 63.937506 69.221352 
L 64.161797 69.680081 
L 64.386089 71.056761 
L 64.61038 75.645283 
L 64.834672 77.480691 
L 65.507547 76.104258 
L 65.731838 76.104258 
L 66.404713 70.597786 
L 67.077587 72.89217 
L 67.301879 72.89217 
L 67.52617 76.562987 
L 67.750462 77.021962 
L 67.974754 78.857371 
L 68.647628 79.775075 
L 68.87192 81.610484 
L 69.096211 84.822326 
L 69.320503 83.445893 
L 69.544794 80.69278 
L 70.441961 76.562987 
L 70.890544 80.233804 
L 71.114835 81.151509 
L 71.78771 81.610484 
L 72.012002 83.445893 
L 72.460585 78.398396 
L 72.684876 82.528188 
L 73.357751 84.363597 
L 73.582042 81.151509 
L 73.806334 82.069213 
L 74.030626 80.233804 
L 75.152083 80.233804 
L 75.376375 80.69278 
L 75.600666 88.952118 
L 75.824958 91.246502 
L 76.497833 89.869823 
L 76.722124 88.034414 
L 77.394999 86.657735 
L 78.067873 87.575685 
L 78.292165 87.11671 
L 78.740748 88.493389 
L 78.96504 88.952118 
L 79.637914 89.411094 
L 79.862206 88.493389 
L 80.310789 88.493389 
L 80.535081 89.411094 
L 81.207955 88.952118 
L 81.656538 87.11671 
L 81.88083 87.11671 
L 82.105121 86.199006 
L 82.777996 86.199006 
L 83.002288 87.575685 
L 83.226579 88.034414 
L 83.675162 88.034414 
L 84.348037 87.11671 
L 84.572328 87.575685 
L 84.79662 87.11671 
L 85.245203 85.74003 
L 85.918078 86.657735 
L 86.142369 87.575685 
L 86.366661 105.929772 
L 86.815244 105.929772 
L 87.488119 111.894973 
L 87.71241 111.894973 
L 87.936702 115.56579 
L 88.160993 114.189357 
L 88.385285 111.894973 
L 89.282451 112.812677 
L 89.506743 114.648086 
L 89.731034 115.107061 
L 89.955326 115.107061 
L 90.6282 114.189357 
L 90.852492 115.107061 
L 91.301075 121.530992 
L 91.525367 121.530992 
L 92.198241 120.613287 
L 92.422533 121.530992 
L 92.646824 119.236608 
L 92.871116 118.318903 
L 93.095407 114.189357 
L 93.768282 114.189357 
L 94.216865 111.894973 
L 94.441157 105.012067 
L 94.665448 101.800225 
L 95.562615 110.977269 
L 95.786906 111.435998 
L 96.235489 110.518293 
L 96.908364 110.518293 
L 97.581238 106.847476 
L 97.80553 106.388747 
L 98.478405 106.847476 
L 98.702696 110.059564 
L 98.926988 110.059564 
L 99.151279 110.518293 
L 99.375571 111.894973 
L 100.048446 113.271406 
L 100.272737 113.271406 
L 100.497029 113.730382 
L 100.72132 114.648086 
L 100.945612 114.648086 
L 101.618486 115.107061 
L 102.06707 117.401199 
L 102.515653 117.401199 
L 103.188527 116.94247 
L 103.412819 116.483495 
L 103.63711 116.94247 
L 103.861402 116.94247 
L 104.085694 122.448696 
L 104.758568 123.3664 
L 104.98286 131.16701 
L 105.431443 127.496193 
L 105.655734 122.907425 
L 106.328609 121.989721 
L 106.552901 123.825129 
L 106.777192 124.284105 
L 107.001484 126.119513 
L 107.225775 124.742834 
L 108.122941 124.742834 
L 108.347233 122.907425 
L 108.571525 120.154312 
L 108.795816 120.613287 
L 109.468691 122.448696 
L 109.692982 121.530992 
L 109.917274 122.448696 
L 110.141565 122.448696 
L 110.365857 122.907425 
L 111.263023 121.072016 
L 111.487315 123.3664 
L 111.711606 121.530992 
L 111.935898 122.448696 
L 112.608772 122.907425 
L 112.833064 123.3664 
L 113.057356 123.3664 
L 113.281647 123.825129 
L 113.505939 125.201809 
L 114.178813 125.660538 
L 114.403105 125.201809 
L 115.07598 126.578242 
L 115.748854 127.496193 
L 116.421729 131.16701 
L 116.64602 131.625739 
L 117.318895 133.461148 
L 117.767478 138.967374 
L 117.99177 142.179462 
L 118.216061 142.638437 
L 118.888936 141.720733 
L 119.337519 136.673236 
L 119.786102 125.660538 
L 120.683268 123.825129 
L 120.90756 125.660538 
L 121.131851 130.249306 
L 122.029018 126.578242 
L 122.253309 127.954922 
L 122.701892 127.954922 
L 122.926184 127.496193 
L 123.599059 127.954922 
L 123.82335 127.954922 
L 124.047642 128.413897 
L 124.271933 128.413897 
L 124.496225 129.331601 
L 125.169099 130.708035 
L 125.393391 130.249306 
L 125.617683 128.872626 
L 125.841974 128.872626 
L 126.066266 129.331601 
L 126.73914 128.872626 
L 126.963432 130.708035 
L 127.187723 130.708035 
L 127.412015 131.16701 
L 127.636306 132.543443 
L 128.309181 138.508645 
L 128.533473 137.59094 
L 128.757764 133.461148 
L 129.206347 135.755532 
L 129.879222 134.837827 
L 130.103514 135.296557 
L 130.327805 135.296557 
L 130.552097 136.673236 
L 130.776388 135.755532 
L 131.449263 137.131965 
L 131.673554 137.131965 
L 131.897846 140.344053 
L 132.122138 138.508645 
L 132.346429 139.885078 
L 133.019304 140.344053 
L 133.243595 142.638437 
L 133.467887 142.638437 
L 133.692178 144.473846 
L 133.91647 141.720733 
L 134.589345 141.261758 
L 136.159385 137.131965 
L 136.83226 138.508645 
L 137.056552 137.59094 
L 137.729426 137.59094 
L 138.402301 129.79033 
L 138.626593 135.296557 
L 139.299467 135.755532 
L 139.523759 135.755532 
L 139.74805 135.296557 
L 140.196633 136.673236 
L 140.869508 135.296557 
L 141.0938 135.296557 
L 141.542383 134.378852 
L 141.766674 132.543443 
L 142.439549 128.872626 
L 142.66384 129.79033 
L 142.888132 133.920123 
L 143.112424 133.920123 
L 143.336715 133.461148 
L 144.00959 133.920123 
L 144.233881 134.378852 
L 144.682464 136.214261 
L 144.906756 136.214261 
L 145.579631 136.673236 
L 145.803922 136.214261 
L 146.028214 135.296557 
L 146.252505 137.131965 
L 146.476797 138.04967 
L 147.149672 139.885078 
L 147.373963 138.508645 
L 147.598255 138.967374 
L 147.822546 141.261758 
L 148.046838 140.803029 
L 149.168295 144.473846 
L 149.392587 158.698386 
L 149.616879 158.698386 
L 150.289753 156.404002 
L 150.514045 154.109865 
L 150.962628 143.556142 
L 151.186919 144.932575 
L 151.859794 148.144663 
L 152.084086 151.356505 
L 152.308377 150.438801 
L 152.532669 150.897776 
L 152.75696 154.568594 
L 153.654127 150.438801 
L 154.10271 158.698386 
L 154.327001 157.321707 
L 154.999876 157.780682 
L 155.224167 157.780682 
L 155.448459 157.321707 
L 155.672751 157.321707 
L 156.569917 153.191914 
L 156.794208 147.685688 
L 157.0185 151.815481 
L 157.242791 151.815481 
L 157.467083 152.27421 
L 158.139958 153.191914 
L 158.364249 153.191914 
L 159.037124 155.486298 
L 159.709998 155.945273 
L 159.93429 155.945273 
L 160.382873 152.733185 
L 161.728622 153.191914 
L 162.177206 155.486298 
L 163.074372 155.486298 
L 163.298663 155.945273 
L 163.522955 154.568594 
L 163.747246 154.568594 
L 164.420121 156.404002 
L 164.644413 155.027569 
L 164.868704 155.486298 
L 165.092996 154.568594 
L 165.317287 155.027569 
L 165.990162 154.109865 
L 166.214453 156.404002 
L 166.438745 157.321707 
L 166.663037 156.404002 
L 167.560203 158.239411 
L 167.784494 157.780682 
L 168.008786 158.239411 
L 168.233077 157.780682 
L 168.457369 158.698386 
L 169.130244 158.239411 
L 169.354535 159.157115 
L 169.803118 170.169814 
L 170.02741 167.87543 
L 170.924576 168.334405 
L 171.148868 167.416701 
L 171.597451 168.334405 
L 172.270325 169.252109 
L 172.9432 172.922927 
L 173.840366 171.087518 
L 174.288949 172.463951 
L 174.513241 172.463951 
L 174.737532 172.005222 
L 175.410407 171.546247 
L 175.85899 172.922927 
L 176.083282 175.217064 
L 176.307573 174.758335 
L 176.980448 176.134769 
L 177.20474 178.429152 
L 177.429031 179.346857 
L 177.653323 190.359309 
L 177.877614 182.09997 
L 178.550489 180.264561 
L 179.223363 170.169814 
L 180.12053 175.217064 
L 180.344821 172.463951 
L 180.569113 171.087518 
L 180.793404 174.29936 
L 181.017696 175.676039 
L 181.690571 176.593744 
L 181.914862 175.676039 
L 182.139154 176.134769 
L 182.363445 177.511448 
L 182.587737 177.511448 
L 183.709195 178.887882 
L 183.933486 178.429152 
L 184.157778 179.346857 
L 184.830652 179.805586 
L 185.054944 179.805586 
L 185.279235 177.511448 
L 185.503527 179.346857 
L 185.727819 178.887882 
L 186.400693 187.606196 
L 186.624985 186.688491 
L 186.849276 189.441604 
L 187.073568 190.818284 
L 187.297859 188.982875 
L 187.970734 190.818284 
L 188.195026 193.112668 
L 188.643609 194.030372 
L 188.8679 197.70119 
L 189.540775 203.207416 
L 189.765066 205.960529 
L 189.989358 205.960529 
L 190.437941 198.618894 
L 191.110816 198.618894 
L 191.78369 203.207416 
L 192.007982 205.042824 
L 192.680857 201.830736 
L 192.905148 199.077623 
L 193.12944 203.666145 
L 193.353731 205.501553 
L 194.250897 205.501553 
L 194.475189 204.583849 
L 194.699481 204.583849 
L 195.148064 205.960529 
L 195.820938 205.042824 
L 196.269521 203.666145 
L 196.493813 190.818284 
L 197.615271 190.818284 
L 197.839562 188.065171 
L 198.288145 177.970177 
L 199.185312 165.581046 
L 199.409603 170.628543 
L 199.633895 170.169814 
L 199.858186 168.334405 
L 200.531061 166.49875 
L 200.755353 167.416701 
L 200.979644 166.957725 
L 201.203936 166.040021 
L 201.428227 166.957725 
L 202.101102 167.87543 
L 202.325393 165.581046 
L 202.549685 166.040021 
L 202.998268 160.533795 
L 203.895434 155.486298 
L 204.119726 156.404002 
L 204.568309 163.286908 
L 205.241184 163.286908 
L 205.465475 165.581046 
L 205.689767 159.157115 
L 205.914058 158.698386 
L 206.811224 160.533795 
L 207.035516 165.581046 
L 207.259808 167.416701 
L 207.484099 167.87543 
L 207.708391 167.416701 
L 208.605557 167.416701 
L 208.829848 167.87543 
L 209.951306 167.87543 
L 210.175598 168.334405 
L 210.399889 168.334405 
L 210.624181 167.87543 
L 210.848472 166.957725 
L 211.521347 166.49875 
L 211.745639 167.87543 
L 211.96993 167.87543 
L 212.418513 163.286908 
L 213.091388 164.663341 
L 213.315679 164.204612 
L 213.539971 165.581046 
L 213.764263 164.204612 
L 213.988554 166.040021 
L 214.661429 164.663341 
L 214.88572 165.581046 
L 215.110012 165.122317 
L 215.334303 166.49875 
L 215.558595 166.49875 
L 216.23147 167.416701 
L 216.455761 166.957725 
L 217.128636 166.957725 
L 217.80151 167.416701 
L 218.698677 165.581046 
L 219.371551 166.957725 
L 219.820134 165.581046 
L 220.268718 165.581046 
L 220.941592 166.040021 
L 221.165884 166.040021 
L 221.390175 166.49875 
L 221.614467 165.581046 
L 221.838758 165.581046 
L 222.511633 166.49875 
L 223.184508 166.49875 
L 223.408799 166.957725 
L 224.081674 166.49875 
L 224.305965 167.416701 
L 224.530257 167.416701 
L 224.754549 167.87543 
L 224.97884 167.416701 
L 226.548881 174.29936 
L 227.221756 174.29936 
L 227.446047 173.840631 
L 227.670339 173.840631 
L 227.89463 172.922927 
L 228.118922 173.381656 
L 228.791797 172.463951 
L 229.016088 170.628543 
L 229.24038 171.087518 
L 229.464671 171.087518 
L 229.688963 168.334405 
L 230.361837 168.334405 
L 230.810421 169.710838 
L 231.034712 169.710838 
L 231.259004 171.087518 
L 231.931878 172.463951 
L 232.15617 170.628543 
L 232.380461 172.922927 
L 232.829044 172.922927 
L 233.501919 175.676039 
L 233.726211 179.346857 
L 233.950502 177.511448 
L 234.174794 177.511448 
L 234.399085 182.09997 
L 235.07196 183.476649 
L 235.296252 184.394354 
L 235.744835 170.169814 
L 236.642001 182.09997 
L 236.866292 182.558945 
L 237.539167 173.381656 
L 238.212042 175.217064 
L 238.436333 174.758335 
L 238.660625 174.758335 
L 238.884916 174.29936 
L 239.109208 174.758335 
L 239.782083 175.217064 
L 240.006374 175.676039 
L 240.230666 174.758335 
L 240.454957 175.217064 
L 241.576415 175.676039 
L 241.800707 176.593744 
L 242.024998 176.134769 
L 242.24929 177.511448 
L 242.922164 177.970177 
L 243.146456 180.723536 
L 243.595039 183.476649 
L 243.819331 183.935378 
L 244.716497 181.182265 
L 245.16508 183.017674 
L 245.389371 182.558945 
L 246.062246 181.641241 
L 246.510829 183.476649 
L 246.959412 187.606196 
L 247.632287 190.818284 
L 247.856578 194.948077 
L 248.305162 185.312058 
L 248.529453 185.770787 
L 249.202328 185.770787 
L 249.650911 186.688491 
L 249.875202 184.853083 
L 250.099494 185.770787 
L 250.772369 185.770787 
L 250.99666 185.312058 
L 251.220952 185.770787 
L 251.445243 185.770787 
L 251.669535 184.394354 
L 252.566701 182.09997 
L 252.790993 182.558945 
L 253.015284 181.641241 
L 253.239576 178.887882 
L 253.91245 172.463951 
L 254.136742 171.546247 
L 254.361033 172.922927 
L 254.809617 179.346857 
L 255.482491 181.182265 
L 255.706783 180.723536 
L 256.155366 180.723536 
L 256.379657 179.805586 
L 257.052532 179.346857 
L 257.276824 180.264561 
L 257.501115 179.346857 
L 257.725407 180.264561 
L 258.622573 180.264561 
L 258.846865 179.805586 
L 259.519739 177.511448 
L 260.192614 176.593744 
L 260.416905 174.758335 
L 260.641197 174.758335 
L 260.865489 176.593744 
L 261.08978 176.134769 
L 261.762655 178.429152 
L 262.211238 174.758335 
L 262.659821 173.381656 
L 264.00557 173.381656 
L 264.229862 174.29936 
L 264.902736 175.217064 
L 265.127028 175.217064 
L 265.35132 175.676039 
L 265.575611 175.676039 
L 265.799903 176.134769 
L 266.472777 175.217064 
L 266.697069 175.676039 
L 267.369944 175.676039 
L 268.042818 176.134769 
L 268.715693 176.134769 
L 268.939984 175.217064 
L 269.837151 175.217064 
L 270.061442 174.758335 
L 270.285734 174.758335 
L 270.510025 173.840631 
L 271.1829 172.463951 
L 271.407191 171.546247 
L 271.631483 171.546247 
L 271.855775 171.087518 
L 272.752941 167.87543 
L 272.977232 168.334405 
L 273.425815 166.957725 
L 273.650107 168.334405 
L 274.322982 170.169814 
L 274.547273 169.710838 
L 274.771565 169.710838 
L 274.995856 168.334405 
L 275.220148 167.87543 
L 275.893023 168.334405 
L 276.117314 168.334405 
L 276.341606 167.87543 
L 276.565897 166.040021 
L 276.790189 165.581046 
L 277.463063 165.122317 
L 277.687355 167.87543 
L 277.911646 168.334405 
L 278.135938 170.169814 
L 278.36023 169.252109 
L 279.033104 167.87543 
L 279.481687 168.793134 
L 279.705979 167.87543 
L 279.93027 167.87543 
L 280.603145 167.416701 
L 280.827437 167.416701 
L 281.051728 166.040021 
L 281.27602 166.49875 
L 281.500311 166.49875 
L 282.397478 165.122317 
L 282.621769 164.204612 
L 282.846061 164.204612 
L 283.070352 163.745637 
L 283.743227 163.286908 
L 283.967518 161.451499 
L 284.416101 151.815481 
L 284.640393 149.980072 
L 285.537559 147.685688 
L 285.761851 141.261758 
L 285.986142 139.885078 
L 286.210434 140.344053 
L 286.883309 142.638437 
L 287.1076 144.932575 
L 287.331892 149.062368 
L 287.780475 149.980072 
L 288.453349 153.650889 
L 288.677641 154.109865 
L 288.901933 156.404002 
L 289.126224 154.568594 
L 289.350516 154.109865 
L 290.02339 154.109865 
L 290.471973 147.685688 
L 290.696265 148.603392 
L 290.920556 148.144663 
L 291.593431 149.521097 
L 292.042014 147.685688 
L 292.490597 148.603392 
L 293.163472 149.521097 
L 293.387764 150.897776 
L 293.612055 150.897776 
L 293.836347 151.815481 
L 294.060638 150.897776 
L 294.733513 149.980072 
L 294.957804 153.650889 
L 295.182096 154.109865 
L 295.630679 151.815481 
L 296.303554 150.897776 
L 296.752137 149.521097 
L 296.976428 150.438801 
L 297.20072 149.521097 
L 297.873595 149.980072 
L 298.546469 149.980072 
L 299.667927 150.897776 
L 299.892219 150.897776 
L 300.11651 149.980072 
L 301.237968 149.980072 
L 301.462259 151.356505 
L 301.686551 149.980072 
L 301.910843 150.438801 
L 302.583717 149.062368 
L 302.808009 149.521097 
L 303.0323 149.521097 
L 303.256592 149.980072 
L 303.480883 149.521097 
L 304.153758 149.521097 
L 304.37805 149.062368 
L 304.602341 147.685688 
L 304.826633 147.226959 
L 305.050924 145.39155 
L 305.94809 145.39155 
L 306.172382 144.932575 
L 306.396674 144.932575 
L 306.620965 144.473846 
L 307.518131 144.473846 
L 308.191006 140.803029 
L 309.088172 140.344053 
L 309.312464 139.426349 
L 309.536755 136.214261 
L 309.761047 136.214261 
L 310.433922 135.755532 
L 310.658213 137.131965 
L 311.106796 134.837827 
L 311.331088 133.002419 
L 312.228254 121.072016 
L 312.452546 121.530992 
L 312.676837 120.613287 
L 312.901129 121.072016 
L 313.798295 122.448696 
L 314.471169 115.107061 
L 315.368336 118.318903 
L 315.592627 121.072016 
L 316.04121 122.448696 
L 316.714085 121.072016 
L 316.938377 119.695583 
L 317.162668 119.695583 
L 317.38696 118.777879 
L 317.611251 119.695583 
L 318.284126 118.777879 
L 318.508417 120.613287 
L 318.732709 121.530992 
L 318.957001 124.284105 
L 319.181292 124.742834 
L 320.078458 124.742834 
L 320.30275 125.660538 
L 320.527041 127.496193 
L 321.648499 131.625739 
L 321.872791 141.261758 
L 322.321374 145.850279 
L 322.994248 148.603392 
L 323.21854 151.356505 
L 323.667123 139.885078 
L 323.891415 139.885078 
L 324.564289 138.04967 
L 324.788581 135.755532 
L 325.237164 138.04967 
L 325.461456 138.967374 
L 326.358622 139.885078 
L 326.582913 138.967374 
L 327.031496 140.803029 
L 327.704371 139.885078 
L 327.928663 142.179462 
L 328.377246 142.179462 
L 328.601537 170.169814 
L 329.274412 192.653693 
L 329.722995 165.581046 
L 329.947287 167.416701 
L 330.171578 174.758335 
L 330.844453 172.922927 
L 331.068744 174.758335 
L 331.293036 177.970177 
L 331.741619 188.982875 
L 332.414494 188.982875 
L 332.638785 194.489101 
L 333.087368 196.783485 
L 333.31166 195.865781 
L 333.984535 196.32451 
L 334.208826 197.70119 
L 334.433118 196.32451 
L 334.657409 196.32451 
L 334.881701 198.618894 
L 336.451742 209.631346 
L 337.348908 212.384459 
L 337.573199 221.102773 
L 338.021782 222.938182 
L 338.694657 219.267364 
L 338.918949 209.631346 
L 339.14324 206.419504 
L 339.367532 206.878233 
L 339.591823 202.74844 
L 340.264698 197.70119 
L 340.713281 178.887882 
L 340.937573 179.346857 
L 341.834739 184.394354 
L 342.283322 184.394354 
L 342.507614 183.935378 
L 343.40478 183.935378 
L 343.629071 184.394354 
L 343.853363 187.147467 
L 344.077654 187.606196 
L 344.974821 190.818284 
L 345.199112 195.406806 
L 345.647695 197.70119 
L 345.871987 199.995327 
L 346.544861 202.289711 
L 346.993445 213.761138 
L 347.442028 220.644044 
L 348.114902 211.008026 
L 348.339194 202.74844 
L 348.563485 204.583849 
L 348.787777 205.042824 
L 349.012069 203.207416 
L 349.684943 205.042841 
L 349.684943 205.042841 
" style="fill:none;stroke:#1f77b4;stroke-linecap:square;stroke-width:1.5;"/>
   </g>
   <g id="line2d_18">
    <path clip-path="url(#p1634fb1be9)" d="M 45.321307 61.42096 
L 45.545598 60.503324 
L 45.76989 60.962019 
L 45.994181 60.503324 
L 46.667056 60.044383 
L 46.891348 59.585442 
L 47.115639 60.044383 
L 47.339931 59.585442 
L 47.564222 57.75017 
L 48.237097 61.42096 
L 48.909972 57.75017 
L 49.134263 59.126747 
L 49.807138 58.667806 
L 50.255721 57.75017 
L 50.480013 58.208865 
L 50.704304 57.75017 
L 51.377179 59.126747 
L 51.825762 57.75017 
L 52.274345 57.75017 
L 53.395803 58.667806 
L 53.620094 57.291229 
L 53.844386 57.291229 
L 54.965844 58.667806 
L 55.190135 57.291229 
L 55.414427 57.291229 
L 56.087301 56.373593 
L 56.760176 48.573073 
L 56.984468 45.819919 
L 57.657342 52.243863 
L 57.881634 53.161499 
L 58.105925 53.161499 
L 58.330217 51.784922 
L 58.554508 52.243863 
L 59.451675 55.455958 
L 59.675966 54.997017 
L 59.900258 55.914652 
L 60.124549 57.75017 
L 60.797424 58.667806 
L 61.021715 60.044383 
L 61.246007 66.927268 
L 61.470299 62.797537 
L 61.69459 62.797537 
L 62.367465 65.09175 
L 62.816048 68.303844 
L 63.040339 67.386209 
L 63.264631 70.139116 
L 64.161797 70.139116 
L 64.386089 71.056998 
L 64.61038 75.645424 
L 64.834672 77.480942 
L 65.731838 76.104365 
L 65.95613 74.727788 
L 66.180421 71.515693 
L 66.404713 71.056998 
L 67.301879 72.89227 
L 67.52617 76.104365 
L 67.750462 76.563306 
L 67.974754 77.939883 
L 68.647628 79.775154 
L 69.096211 84.822521 
L 69.320503 83.904885 
L 69.544794 80.693036 
L 70.217669 76.563306 
L 70.441961 76.104365 
L 70.890544 80.693036 
L 71.114835 81.151731 
L 71.78771 82.069613 
L 72.012002 83.904885 
L 72.460585 78.398577 
L 72.684876 82.987249 
L 73.357751 83.904885 
L 73.582042 81.151731 
L 73.806334 81.610672 
L 74.030626 80.234095 
L 75.152083 80.234095 
L 75.376375 80.693036 
L 75.600666 89.411193 
L 75.824958 90.328828 
L 76.497833 89.411193 
L 76.946416 87.575675 
L 77.170707 88.034616 
L 77.394999 87.575675 
L 78.292165 87.575675 
L 78.516457 88.034616 
L 78.740748 88.034616 
L 78.96504 89.870134 
L 79.637914 89.411193 
L 79.862206 88.493557 
L 80.310789 88.493557 
L 80.535081 88.952252 
L 81.207955 88.493557 
L 81.432247 87.11698 
L 81.656538 87.575675 
L 81.88083 87.11698 
L 82.105121 86.199098 
L 82.777996 85.740403 
L 83.002288 87.575675 
L 83.226579 88.493557 
L 83.675162 87.575675 
L 84.348037 87.11698 
L 84.572328 87.575675 
L 85.020912 86.199098 
L 85.245203 85.740403 
L 85.918078 86.199098 
L 86.142369 88.034616 
L 86.366661 105.930115 
L 86.815244 106.847751 
L 87.71241 112.354059 
L 87.936702 115.565907 
L 88.385285 112.354059 
L 89.282451 112.812754 
L 89.506743 115.107212 
L 90.6282 115.107212 
L 90.852492 115.565907 
L 91.076783 117.401425 
L 91.301075 121.531156 
L 91.525367 121.989851 
L 92.198241 120.61352 
L 92.422533 121.531156 
L 92.646824 119.695638 
L 92.871116 118.778002 
L 93.095407 114.18933 
L 93.768282 114.648271 
L 93.992574 113.730636 
L 94.216865 111.895118 
L 94.665448 101.800385 
L 95.562615 110.977482 
L 95.786906 111.436177 
L 96.011198 111.436177 
L 96.235489 110.977482 
L 96.908364 110.518541 
L 97.356947 107.306692 
L 97.581238 107.306692 
L 97.80553 106.38881 
L 98.478405 108.224328 
L 98.702696 110.0596 
L 98.926988 110.0596 
L 99.151279 110.518541 
L 99.375571 111.895118 
L 100.048446 113.271695 
L 100.272737 113.271695 
L 100.72132 114.648271 
L 100.945612 114.648271 
L 101.618486 115.107212 
L 102.06707 117.860366 
L 102.515653 117.860366 
L 103.188527 116.942484 
L 103.861402 116.942484 
L 104.085694 122.907733 
L 104.758568 123.825369 
L 104.98286 131.167194 
L 105.431443 127.496158 
L 105.655734 122.907733 
L 106.328609 122.907733 
L 107.001484 126.119581 
L 107.225775 124.28431 
L 107.89865 124.743004 
L 108.122941 125.201946 
L 108.571525 120.154579 
L 108.795816 121.531156 
L 109.468691 122.448792 
L 109.692982 121.989851 
L 110.365857 123.366428 
L 111.038732 120.61352 
L 111.263023 121.072215 
L 111.487315 123.366428 
L 111.711606 121.531156 
L 111.935898 122.448792 
L 112.608772 122.907733 
L 112.833064 123.366428 
L 113.057356 123.366428 
L 113.281647 123.825369 
L 113.505939 125.660887 
L 114.403105 125.660887 
L 114.627396 125.201946 
L 114.851688 126.578522 
L 115.07598 127.037463 
L 115.748854 127.496158 
L 116.421729 131.167194 
L 116.64602 132.08483 
L 117.318895 133.461407 
L 117.543187 135.296679 
L 117.99177 142.638504 
L 118.216061 142.638504 
L 118.888936 142.179563 
L 119.113227 138.049832 
L 119.337519 136.673255 
L 119.786102 125.660887 
L 120.683268 124.28431 
L 120.90756 125.660887 
L 121.131851 130.249312 
L 121.356143 129.790617 
L 122.029018 126.578522 
L 122.701892 128.872735 
L 122.926184 127.496158 
L 123.599059 127.955099 
L 123.82335 127.037463 
L 124.047642 128.41404 
L 124.271933 128.41404 
L 124.496225 129.331676 
L 125.169099 130.708253 
L 125.393391 130.249312 
L 125.617683 128.872735 
L 125.841974 128.872735 
L 126.066266 129.331676 
L 126.73914 128.872735 
L 126.963432 130.249312 
L 127.412015 131.167194 
L 128.533473 137.591138 
L 128.757764 133.461407 
L 128.982056 134.837984 
L 129.206347 135.296679 
L 129.879222 134.837984 
L 130.103514 135.296679 
L 130.327805 135.296679 
L 130.552097 135.75562 
L 130.776388 135.296679 
L 131.673554 137.591138 
L 131.897846 139.88535 
L 132.122138 138.508773 
L 132.346429 139.88535 
L 133.019304 139.88535 
L 133.243595 142.638504 
L 133.467887 142.638504 
L 133.692178 144.015081 
L 133.91647 141.261927 
L 134.589345 141.261927 
L 135.262219 139.88535 
L 135.486511 138.508773 
L 136.159385 138.508773 
L 136.83226 138.049832 
L 137.056552 137.591138 
L 137.729426 137.591138 
L 138.402301 131.167194 
L 138.626593 135.75562 
L 139.299467 136.214561 
L 139.74805 134.837984 
L 139.972342 136.673255 
L 140.196633 137.591138 
L 140.869508 135.296679 
L 141.318091 135.296679 
L 141.542383 134.379043 
L 141.766674 132.543771 
L 142.439549 128.872735 
L 142.66384 130.708253 
L 142.888132 134.379043 
L 143.112424 133.920348 
L 143.336715 133.002466 
L 144.00959 134.379043 
L 144.233881 134.379043 
L 144.682464 136.214561 
L 144.906756 136.214561 
L 145.579631 137.132196 
L 145.803922 134.837984 
L 146.476797 138.508773 
L 147.149672 139.88535 
L 147.373963 139.426409 
L 147.598255 139.426409 
L 147.822546 141.720868 
L 148.046838 141.261927 
L 149.168295 144.932717 
L 149.392587 160.075063 
L 149.616879 159.616122 
L 150.289753 156.404273 
L 150.514045 154.109814 
L 150.962628 144.932717 
L 151.186919 144.932717 
L 151.859794 147.685871 
L 152.084086 151.815601 
L 152.308377 149.980083 
L 152.532669 150.897965 
L 152.75696 154.568755 
L 153.654127 150.439024 
L 154.10271 158.698486 
L 154.327001 157.78085 
L 155.448459 157.78085 
L 155.672751 157.321909 
L 156.569917 153.651119 
L 156.794208 147.685871 
L 157.0185 152.274542 
L 157.242791 152.274542 
L 157.467083 151.815601 
L 158.139958 153.192178 
L 158.364249 153.192178 
L 159.037124 156.404273 
L 159.709998 156.404273 
L 159.93429 155.945332 
L 160.158582 153.192178 
L 160.382873 153.192178 
L 161.504331 153.651119 
L 161.728622 154.109814 
L 162.177206 155.486391 
L 162.85008 155.486391 
L 163.074372 156.404273 
L 163.298663 156.404273 
L 163.522955 150.897965 
L 163.747246 155.027696 
L 164.420121 156.404273 
L 164.644413 156.404273 
L 164.868704 155.486391 
L 165.092996 155.486391 
L 165.317287 155.027696 
L 165.990162 154.109814 
L 166.214453 156.404273 
L 166.438745 157.321909 
L 166.663037 157.321909 
L 166.887328 156.862968 
L 167.560203 158.239545 
L 167.784494 157.321909 
L 168.008786 158.698486 
L 168.233077 157.78085 
L 168.457369 158.239545 
L 169.130244 158.698486 
L 169.354535 159.616122 
L 169.803118 170.628737 
L 170.02741 168.334524 
L 170.924576 167.875583 
L 171.148868 168.334524 
L 171.373159 167.875583 
L 171.597451 168.334524 
L 172.270325 170.169796 
L 172.494617 170.169796 
L 172.718908 172.005314 
L 172.9432 172.464255 
L 173.167492 172.464255 
L 173.840366 171.546373 
L 174.288949 172.464255 
L 174.513241 172.005314 
L 175.634699 172.005314 
L 176.083282 175.217162 
L 176.307573 174.758467 
L 176.980448 176.135044 
L 177.429031 179.346893 
L 177.653323 188.52399 
L 177.877614 182.558988 
L 178.550489 179.346893 
L 178.77478 177.05268 
L 179.223363 170.169796 
L 180.12053 175.217162 
L 180.344821 172.464255 
L 180.569113 171.087678 
L 180.793404 174.758467 
L 181.017696 175.676103 
L 181.690571 176.593739 
L 181.914862 175.676103 
L 182.139154 176.135044 
L 182.587737 177.511621 
L 183.260611 178.429257 
L 183.484903 179.346893 
L 183.709195 178.429257 
L 183.933486 178.429257 
L 184.157778 179.346893 
L 185.054944 179.346893 
L 185.279235 177.970316 
L 185.503527 179.805834 
L 185.727819 178.888198 
L 186.400693 187.606354 
L 186.624985 185.771082 
L 186.849276 189.441872 
L 187.073568 190.818449 
L 187.297859 188.982931 
L 187.970734 190.818449 
L 188.195026 193.112662 
L 188.419317 192.653721 
L 188.8679 197.701333 
L 189.540775 204.583972 
L 189.989358 206.878431 
L 190.437941 199.536605 
L 191.110816 199.07791 
L 191.335107 199.995546 
L 192.007982 205.501854 
L 192.905148 200.913182 
L 193.353731 205.960549 
L 193.578023 205.501854 
L 194.250897 205.501854 
L 194.475189 204.125277 
L 194.699481 204.583972 
L 194.923772 204.583972 
L 195.148064 205.960549 
L 195.820938 205.042913 
L 196.04523 204.125277 
L 196.269521 204.125277 
L 196.493813 190.818449 
L 196.718105 191.736085 
L 197.390979 190.818449 
L 197.615271 191.736085 
L 197.839562 190.359508 
L 198.288145 177.970316 
L 199.185312 165.58137 
L 199.409603 169.25216 
L 199.633895 170.169796 
L 199.858186 168.334524 
L 200.531061 166.957947 
L 200.755353 167.416642 
L 200.979644 167.416642 
L 201.203936 166.499006 
L 202.101102 168.334524 
L 202.325393 166.040065 
L 202.549685 165.58137 
L 202.998268 161.451639 
L 203.895434 155.486391 
L 204.119726 156.862968 
L 204.568309 163.745852 
L 205.241184 164.204793 
L 205.465475 165.58137 
L 205.689767 159.157427 
L 205.914058 159.157427 
L 206.811224 160.992698 
L 207.035516 165.58137 
L 207.259808 167.875583 
L 207.484099 168.793219 
L 207.708391 167.875583 
L 208.381265 166.957947 
L 208.829848 167.875583 
L 209.278431 167.875583 
L 209.951306 168.334524 
L 210.175598 170.169796 
L 210.399889 167.875583 
L 210.624181 167.416642 
L 210.848472 167.875583 
L 211.521347 166.957947 
L 211.745639 167.875583 
L 211.96993 166.957947 
L 212.194222 167.875583 
L 212.418513 163.286911 
L 213.091388 164.663488 
L 213.315679 164.663488 
L 213.539971 163.745852 
L 213.988554 166.040065 
L 214.661429 164.204793 
L 215.110012 167.416642 
L 215.334303 165.58137 
L 215.558595 166.499006 
L 216.23147 167.875583 
L 216.455761 166.499006 
L 217.128636 167.875583 
L 217.80151 167.875583 
L 218.025802 165.58137 
L 218.698677 166.040065 
L 219.371551 166.040065 
L 219.595843 166.499006 
L 219.820134 165.58137 
L 220.044426 167.875583 
L 220.268718 165.58137 
L 220.941592 166.499006 
L 221.165884 166.499006 
L 221.390175 166.957947 
L 221.614467 165.58137 
L 221.838758 166.040065 
L 222.735925 166.040065 
L 222.960216 166.499006 
L 224.081674 166.499006 
L 224.305965 166.957947 
L 224.530257 167.875583 
L 224.754549 167.875583 
L 224.97884 165.58137 
L 226.100298 172.464255 
L 226.548881 174.758467 
L 227.446047 174.758467 
L 227.89463 172.922949 
L 228.118922 174.299526 
L 228.791797 172.922949 
L 229.016088 170.169796 
L 229.24038 170.628737 
L 229.464671 170.169796 
L 229.688963 168.334524 
L 230.361837 167.875583 
L 230.586129 169.25216 
L 230.810421 169.711101 
L 231.034712 169.711101 
L 231.259004 172.005314 
L 231.931878 173.38189 
L 232.15617 171.546373 
L 232.604753 172.922949 
L 232.829044 172.464255 
L 233.501919 177.05268 
L 233.726211 180.264775 
L 233.950502 178.888198 
L 234.174794 178.888198 
L 234.399085 177.970316 
L 235.07196 183.476623 
L 235.296252 184.394506 
L 235.744835 170.628737 
L 235.969126 172.005314 
L 236.642001 181.641352 
L 236.866292 182.558988 
L 237.539167 173.38189 
L 238.212042 174.758467 
L 238.436333 174.758467 
L 238.660625 174.299526 
L 238.884916 172.464255 
L 239.109208 175.676103 
L 239.782083 175.676103 
L 240.006374 174.758467 
L 240.230666 170.628737 
L 240.454957 174.758467 
L 241.576415 176.135044 
L 241.800707 176.593739 
L 242.024998 174.758467 
L 242.24929 177.05268 
L 242.922164 177.05268 
L 243.370747 182.100047 
L 243.595039 183.476623 
L 243.819331 183.935565 
L 244.716497 181.182411 
L 244.940788 181.641352 
L 245.16508 183.017929 
L 245.389371 182.558988 
L 246.062246 181.641352 
L 246.286538 182.100047 
L 246.510829 183.935565 
L 246.735121 183.935565 
L 246.959412 187.606354 
L 247.632287 189.441872 
L 247.856578 194.94818 
L 248.305162 185.312141 
L 248.529453 184.8532 
L 249.202328 186.229777 
L 249.426619 186.229777 
L 249.650911 186.688718 
L 249.875202 185.312141 
L 250.099494 185.771082 
L 251.220952 185.771082 
L 251.669535 184.394506 
L 252.566701 181.641352 
L 252.790993 182.558988 
L 253.015284 181.641352 
L 253.239576 177.511621 
L 253.91245 170.169796 
L 254.136742 171.087678 
L 254.361033 172.922949 
L 254.809617 179.346893 
L 255.482491 180.72347 
L 255.706783 180.72347 
L 256.155366 179.346893 
L 256.379657 179.805834 
L 257.052532 179.346893 
L 257.501115 181.182411 
L 257.725407 180.72347 
L 257.949698 180.72347 
L 258.622573 180.264775 
L 259.071156 179.346893 
L 259.519739 177.05268 
L 260.192614 177.05268 
L 260.416905 173.840831 
L 260.641197 174.758467 
L 260.865489 176.593739 
L 261.762655 178.429257 
L 262.435529 172.922949 
L 262.659821 173.38189 
L 263.556987 173.38189 
L 263.781279 174.758467 
L 264.00557 173.38189 
L 264.229862 174.299526 
L 264.902736 175.217162 
L 265.127028 175.217162 
L 265.35132 175.676103 
L 265.575611 175.676103 
L 265.799903 176.135044 
L 266.472777 176.135044 
L 266.697069 175.676103 
L 266.92136 176.135044 
L 267.145652 175.676103 
L 267.369944 176.135044 
L 268.26711 176.135044 
L 268.491401 175.676103 
L 269.612859 175.676103 
L 269.837151 174.758467 
L 270.061442 174.758467 
L 270.285734 174.299526 
L 270.510025 173.38189 
L 271.1829 172.464255 
L 271.631483 171.087678 
L 271.855775 171.087678 
L 272.080066 169.711101 
L 272.977232 167.416642 
L 273.201524 167.416642 
L 273.425815 166.957947 
L 274.322982 170.169796 
L 274.547273 169.25216 
L 274.771565 169.711101 
L 274.995856 168.334524 
L 276.117314 168.334524 
L 276.341606 167.875583 
L 276.565897 165.58137 
L 276.790189 165.122429 
L 277.463063 164.663488 
L 277.687355 167.875583 
L 277.911646 167.875583 
L 278.135938 169.25216 
L 278.36023 167.875583 
L 279.033104 167.875583 
L 279.257396 168.334524 
L 279.481687 167.875583 
L 280.603145 167.875583 
L 280.827437 167.416642 
L 281.051728 166.040065 
L 281.500311 166.040065 
L 282.173186 165.58137 
L 282.397478 163.286911 
L 282.846061 164.204793 
L 283.070352 163.286911 
L 283.743227 163.286911 
L 284.19181 156.862968 
L 284.416101 152.274542 
L 284.640393 149.980083 
L 285.537559 148.144812 
L 285.761851 141.261927 
L 286.210434 139.88535 
L 286.883309 142.638504 
L 287.556183 149.521388 
L 287.780475 149.521388 
L 288.901933 156.404273 
L 289.126224 154.109814 
L 289.350516 154.109814 
L 290.02339 154.568755 
L 290.471973 148.144812 
L 290.696265 148.144812 
L 290.920556 147.685871 
L 291.593431 148.603506 
L 291.817723 148.603506 
L 292.042014 147.227176 
L 292.266306 148.144812 
L 292.490597 148.144812 
L 293.163472 149.521388 
L 293.387764 150.897965 
L 293.612055 150.897965 
L 293.836347 151.815601 
L 294.060638 149.980083 
L 294.733513 150.897965 
L 294.957804 154.109814 
L 295.182096 153.651119 
L 295.406388 152.274542 
L 295.630679 151.815601 
L 296.303554 149.980083 
L 296.527845 150.897965 
L 296.752137 149.521388 
L 296.976428 150.439024 
L 297.20072 149.980083 
L 297.873595 150.439024 
L 298.097886 149.980083 
L 298.322178 149.980083 
L 298.546469 149.521388 
L 299.667927 151.35666 
L 299.892219 149.980083 
L 300.11651 150.439024 
L 301.237968 149.980083 
L 301.462259 151.815601 
L 301.686551 149.980083 
L 301.910843 149.521388 
L 302.583717 148.603506 
L 303.0323 149.521388 
L 303.256592 149.521388 
L 303.480883 149.062447 
L 304.37805 149.062447 
L 304.602341 147.685871 
L 304.826633 147.227176 
L 305.050924 145.391658 
L 305.723799 144.932717 
L 305.94809 144.932717 
L 306.172382 144.474022 
L 306.396674 144.474022 
L 306.620965 143.097445 
L 307.29384 144.015081 
L 307.518131 144.015081 
L 307.742423 143.097445 
L 307.966714 143.097445 
L 308.191006 140.344291 
L 309.088172 140.802986 
L 309.312464 139.426409 
L 309.536755 136.673255 
L 309.761047 135.75562 
L 310.433922 135.75562 
L 310.658213 137.132196 
L 311.106796 134.837984 
L 312.003962 121.989851 
L 312.228254 121.072215 
L 312.452546 121.531156 
L 312.676837 120.61352 
L 312.901129 121.072215 
L 313.798295 122.448792 
L 314.022586 120.61352 
L 314.471169 115.565907 
L 315.368336 118.319061 
L 315.592627 121.072215 
L 316.04121 122.448792 
L 316.714085 120.61352 
L 316.938377 117.860366 
L 317.162668 118.319061 
L 317.38696 118.319061 
L 317.611251 119.695638 
L 318.284126 118.778002 
L 318.957001 124.28431 
L 319.181292 124.743004 
L 320.078458 124.743004 
L 320.30275 125.201946 
L 320.527041 127.037463 
L 321.648499 131.625889 
L 321.872791 141.261927 
L 322.321374 145.850599 
L 322.994248 148.144812 
L 323.21854 151.35666 
L 323.667123 140.802986 
L 323.891415 139.88535 
L 324.564289 138.049832 
L 324.788581 136.214561 
L 325.461456 138.967714 
L 326.358622 139.88535 
L 326.582913 139.426409 
L 326.807205 139.88535 
L 327.031496 141.720868 
L 327.704371 139.88535 
L 327.928663 140.344291 
L 328.377246 140.344291 
L 328.601537 154.109814 
L 329.274412 163.286911 
L 329.498703 168.793219 
L 329.722995 162.828216 
L 329.947287 162.828216 
L 330.171578 167.416642 
L 330.844453 168.334524 
L 331.068744 169.711101 
L 331.293036 170.169796 
L 331.741619 174.758467 
L 332.414494 176.135044 
L 332.638785 177.05268 
L 332.863077 177.05268 
L 333.31166 167.875583 
L 333.984535 167.875583 
L 334.208826 172.464255 
L 334.657409 166.957947 
L 334.881701 172.464255 
L 335.778867 172.464255 
L 336.003158 172.005314 
L 336.22745 170.169796 
L 337.124616 170.169796 
L 337.348908 167.875583 
L 337.573199 173.38189 
L 337.797491 181.641352 
L 338.021782 184.8532 
L 338.694657 183.935565 
L 338.918949 182.100047 
L 339.14324 181.641352 
L 339.367532 179.346893 
L 339.591823 179.346893 
L 340.264698 183.935565 
L 340.48899 180.72347 
L 340.713281 172.005314 
L 340.937573 171.087678 
L 341.161864 173.840831 
L 341.834739 173.38189 
L 342.507614 176.135044 
L 342.731905 176.135044 
L 343.40478 179.346893 
L 343.629071 176.135044 
L 343.853363 180.264775 
L 344.077654 179.805834 
L 344.301946 179.805834 
L 344.974821 180.264775 
L 345.199112 181.641352 
L 345.423404 179.805834 
L 345.647695 180.72347 
L 345.871987 180.264775 
L 346.544861 177.05268 
L 346.769153 177.05268 
L 346.993445 178.888198 
L 347.442028 179.805834 
L 348.114902 180.264775 
L 348.339194 180.264775 
L 348.563485 179.805834 
L 348.787777 179.805834 
L 349.012069 177.970316 
L 349.684943 177.51146 
L 349.684943 177.51146 
" style="fill:none;stroke:#ff7f0e;stroke-linecap:square;stroke-width:1.5;"/>
   </g>
   <g id="line2d_19">
    <path clip-path="url(#p1634fb1be9)" d="M 328.377246 231.84 
L 328.377246 36 
" style="fill:none;stroke:#1f77b4;stroke-dasharray:5.55,2.4;stroke-dashoffset:0;stroke-opacity:0.5;stroke-width:1.5;"/>
   </g>
   <g id="patch_3">
    <path d="M 30.103125 231.84 
L 30.103125 36 
" style="fill:none;stroke:#000000;stroke-linecap:square;stroke-linejoin:miter;stroke-width:0.8;"/>
   </g>
   <g id="patch_4">
    <path d="M 364.903125 231.84 
L 364.903125 36 
" style="fill:none;stroke:#000000;stroke-linecap:square;stroke-linejoin:miter;stroke-width:0.8;"/>
   </g>
   <g id="patch_5">
    <path d="M 30.103125 231.84 
L 364.903125 231.84 
" style="fill:none;stroke:#000000;stroke-linecap:square;stroke-linejoin:miter;stroke-width:0.8;"/>
   </g>
   <g id="patch_6">
    <path d="M 30.103125 36 
L 364.903125 36 
" style="fill:none;stroke:#000000;stroke-linecap:square;stroke-linejoin:miter;stroke-width:0.8;"/>
   </g>
   <g id="text_18">
    <!-- Cap implemented -->
    <g style="fill:#334f8d;opacity:0.7;" transform="translate(231.259004 76.104205)scale(0.1 -0.1)">
     <defs>
      <path d="M 4122 4306 
L 4122 3641 
Q 3803 3938 3442 4084 
Q 3081 4231 2675 4231 
Q 1875 4231 1450 3742 
Q 1025 3253 1025 2328 
Q 1025 1406 1450 917 
Q 1875 428 2675 428 
Q 3081 428 3442 575 
Q 3803 722 4122 1019 
L 4122 359 
Q 3791 134 3420 21 
Q 3050 -91 2638 -91 
Q 1578 -91 968 557 
Q 359 1206 359 2328 
Q 359 3453 968 4101 
Q 1578 4750 2638 4750 
Q 3056 4750 3426 4639 
Q 3797 4528 4122 4306 
z
" id="DejaVuSans-43" transform="scale(0.015625)"/>
      <path d="M 1159 525 
L 1159 -1331 
L 581 -1331 
L 581 3500 
L 1159 3500 
L 1159 2969 
Q 1341 3281 1617 3432 
Q 1894 3584 2278 3584 
Q 2916 3584 3314 3078 
Q 3713 2572 3713 1747 
Q 3713 922 3314 415 
Q 2916 -91 2278 -91 
Q 1894 -91 1617 61 
Q 1341 213 1159 525 
z
M 3116 1747 
Q 3116 2381 2855 2742 
Q 2594 3103 2138 3103 
Q 1681 3103 1420 2742 
Q 1159 2381 1159 1747 
Q 1159 1113 1420 752 
Q 1681 391 2138 391 
Q 2594 391 2855 752 
Q 3116 1113 3116 1747 
z
" id="DejaVuSans-70" transform="scale(0.015625)"/>
      <path id="DejaVuSans-20" transform="scale(0.015625)"/>
      <path d="M 603 3500 
L 1178 3500 
L 1178 0 
L 603 0 
L 603 3500 
z
M 603 4863 
L 1178 4863 
L 1178 4134 
L 603 4134 
L 603 4863 
z
" id="DejaVuSans-69" transform="scale(0.015625)"/>
      <path d="M 3328 2828 
Q 3544 3216 3844 3400 
Q 4144 3584 4550 3584 
Q 5097 3584 5394 3201 
Q 5691 2819 5691 2113 
L 5691 0 
L 5113 0 
L 5113 2094 
Q 5113 2597 4934 2840 
Q 4756 3084 4391 3084 
Q 3944 3084 3684 2787 
Q 3425 2491 3425 1978 
L 3425 0 
L 2847 0 
L 2847 2094 
Q 2847 2600 2669 2842 
Q 2491 3084 2119 3084 
Q 1678 3084 1418 2786 
Q 1159 2488 1159 1978 
L 1159 0 
L 581 0 
L 581 3500 
L 1159 3500 
L 1159 2956 
Q 1356 3278 1631 3431 
Q 1906 3584 2284 3584 
Q 2666 3584 2933 3390 
Q 3200 3197 3328 2828 
z
" id="DejaVuSans-6d" transform="scale(0.015625)"/>
      <path d="M 603 4863 
L 1178 4863 
L 1178 0 
L 603 0 
L 603 4863 
z
" id="DejaVuSans-6c" transform="scale(0.015625)"/>
      <path d="M 3513 2113 
L 3513 0 
L 2938 0 
L 2938 2094 
Q 2938 2591 2744 2837 
Q 2550 3084 2163 3084 
Q 1697 3084 1428 2787 
Q 1159 2491 1159 1978 
L 1159 0 
L 581 0 
L 581 3500 
L 1159 3500 
L 1159 2956 
Q 1366 3272 1645 3428 
Q 1925 3584 2291 3584 
Q 2894 3584 3203 3211 
Q 3513 2838 3513 2113 
z
" id="DejaVuSans-6e" transform="scale(0.015625)"/>
     </defs>
     <use xlink:href="#DejaVuSans-43"/>
     <use x="69.824219" xlink:href="#DejaVuSans-61"/>
     <use x="131.103516" xlink:href="#DejaVuSans-70"/>
     <use x="194.580078" xlink:href="#DejaVuSans-20"/>
     <use x="226.367188" xlink:href="#DejaVuSans-69"/>
     <use x="254.150391" xlink:href="#DejaVuSans-6d"/>
     <use x="351.5625" xlink:href="#DejaVuSans-70"/>
     <use x="415.039062" xlink:href="#DejaVuSans-6c"/>
     <use x="442.822266" xlink:href="#DejaVuSans-65"/>
     <use x="504.345703" xlink:href="#DejaVuSans-6d"/>
     <use x="601.757812" xlink:href="#DejaVuSans-65"/>
     <use x="663.28125" xlink:href="#DejaVuSans-6e"/>
     <use x="726.660156" xlink:href="#DejaVuSans-74"/>
     <use x="765.869141" xlink:href="#DejaVuSans-65"/>
     <use x="827.392578" xlink:href="#DejaVuSans-64"/>
    </g>
   </g>
   <g id="legend_1">
    <g id="patch_7">
     <path d="M 37.103125 226.84 
L 177.595313 226.84 
Q 179.595313 226.84 179.595313 224.84 
L 179.595313 196.48375 
Q 179.595313 194.48375 177.595313 194.48375 
L 37.103125 194.48375 
Q 35.103125 194.48375 35.103125 196.48375 
L 35.103125 224.84 
Q 35.103125 226.84 37.103125 226.84 
z
" style="fill:#ffffff;opacity:0.8;stroke:#cccccc;stroke-linejoin:miter;"/>
    </g>
    <g id="line2d_20">
     <path d="M 39.103125 202.582187 
L 59.103125 202.582187 
" style="fill:none;stroke:#1f77b4;stroke-linecap:square;stroke-width:1.5;"/>
    </g>
    <g id="line2d_21"/>
    <g id="text_19">
     <!-- FCG (internal market) -->
     <g transform="translate(67.103125 206.082187)scale(0.1 -0.1)">
      <defs>
       <path d="M 628 4666 
L 3309 4666 
L 3309 4134 
L 1259 4134 
L 1259 2759 
L 3109 2759 
L 3109 2228 
L 1259 2228 
L 1259 0 
L 628 0 
L 628 4666 
z
" id="DejaVuSans-46" transform="scale(0.015625)"/>
       <path d="M 3809 666 
L 3809 1919 
L 2778 1919 
L 2778 2438 
L 4434 2438 
L 4434 434 
Q 4069 175 3628 42 
Q 3188 -91 2688 -91 
Q 1594 -91 976 548 
Q 359 1188 359 2328 
Q 359 3472 976 4111 
Q 1594 4750 2688 4750 
Q 3144 4750 3555 4637 
Q 3966 4525 4313 4306 
L 4313 3634 
Q 3963 3931 3569 4081 
Q 3175 4231 2741 4231 
Q 1884 4231 1454 3753 
Q 1025 3275 1025 2328 
Q 1025 1384 1454 906 
Q 1884 428 2741 428 
Q 3075 428 3337 486 
Q 3600 544 3809 666 
z
" id="DejaVuSans-47" transform="scale(0.015625)"/>
       <path d="M 1984 4856 
Q 1566 4138 1362 3434 
Q 1159 2731 1159 2009 
Q 1159 1288 1364 580 
Q 1569 -128 1984 -844 
L 1484 -844 
Q 1016 -109 783 600 
Q 550 1309 550 2009 
Q 550 2706 781 3412 
Q 1013 4119 1484 4856 
L 1984 4856 
z
" id="DejaVuSans-28" transform="scale(0.015625)"/>
       <path d="M 2631 2963 
Q 2534 3019 2420 3045 
Q 2306 3072 2169 3072 
Q 1681 3072 1420 2755 
Q 1159 2438 1159 1844 
L 1159 0 
L 581 0 
L 581 3500 
L 1159 3500 
L 1159 2956 
Q 1341 3275 1631 3429 
Q 1922 3584 2338 3584 
Q 2397 3584 2469 3576 
Q 2541 3569 2628 3553 
L 2631 2963 
z
" id="DejaVuSans-72" transform="scale(0.015625)"/>
       <path d="M 581 4863 
L 1159 4863 
L 1159 1991 
L 2875 3500 
L 3609 3500 
L 1753 1863 
L 3688 0 
L 2938 0 
L 1159 1709 
L 1159 0 
L 581 0 
L 581 4863 
z
" id="DejaVuSans-6b" transform="scale(0.015625)"/>
       <path d="M 513 4856 
L 1013 4856 
Q 1481 4119 1714 3412 
Q 1947 2706 1947 2009 
Q 1947 1309 1714 600 
Q 1481 -109 1013 -844 
L 513 -844 
Q 928 -128 1133 580 
Q 1338 1288 1338 2009 
Q 1338 2731 1133 3434 
Q 928 4138 513 4856 
z
" id="DejaVuSans-29" transform="scale(0.015625)"/>
      </defs>
      <use xlink:href="#DejaVuSans-46"/>
      <use x="57.519531" xlink:href="#DejaVuSans-43"/>
      <use x="127.34375" xlink:href="#DejaVuSans-47"/>
      <use x="204.833984" xlink:href="#DejaVuSans-20"/>
      <use x="236.621094" xlink:href="#DejaVuSans-28"/>
      <use x="275.634766" xlink:href="#DejaVuSans-69"/>
      <use x="303.417969" xlink:href="#DejaVuSans-6e"/>
      <use x="366.796875" xlink:href="#DejaVuSans-74"/>
      <use x="406.005859" xlink:href="#DejaVuSans-65"/>
      <use x="467.529297" xlink:href="#DejaVuSans-72"/>
      <use x="506.892578" xlink:href="#DejaVuSans-6e"/>
      <use x="570.271484" xlink:href="#DejaVuSans-61"/>
      <use x="631.550781" xlink:href="#DejaVuSans-6c"/>
      <use x="659.333984" xlink:href="#DejaVuSans-20"/>
      <use x="691.121094" xlink:href="#DejaVuSans-6d"/>
      <use x="788.533203" xlink:href="#DejaVuSans-61"/>
      <use x="849.8125" xlink:href="#DejaVuSans-72"/>
      <use x="890.925781" xlink:href="#DejaVuSans-6b"/>
      <use x="945.210938" xlink:href="#DejaVuSans-65"/>
      <use x="1006.734375" xlink:href="#DejaVuSans-74"/>
      <use x="1045.943359" xlink:href="#DejaVuSans-29"/>
     </g>
    </g>
    <g id="line2d_22">
     <path d="M 39.103125 217.260312 
L 59.103125 217.260312 
" style="fill:none;stroke:#ff7f0e;stroke-linecap:square;stroke-width:1.5;"/>
    </g>
    <g id="line2d_23"/>
    <g id="text_20">
     <!-- FSF (NZX-listed) -->
     <g transform="translate(67.103125 220.760312)scale(0.1 -0.1)">
      <defs>
       <path d="M 3425 4513 
L 3425 3897 
Q 3066 4069 2747 4153 
Q 2428 4238 2131 4238 
Q 1616 4238 1336 4038 
Q 1056 3838 1056 3469 
Q 1056 3159 1242 3001 
Q 1428 2844 1947 2747 
L 2328 2669 
Q 3034 2534 3370 2195 
Q 3706 1856 3706 1288 
Q 3706 609 3251 259 
Q 2797 -91 1919 -91 
Q 1588 -91 1214 -16 
Q 841 59 441 206 
L 441 856 
Q 825 641 1194 531 
Q 1563 422 1919 422 
Q 2459 422 2753 634 
Q 3047 847 3047 1241 
Q 3047 1584 2836 1778 
Q 2625 1972 2144 2069 
L 1759 2144 
Q 1053 2284 737 2584 
Q 422 2884 422 3419 
Q 422 4038 858 4394 
Q 1294 4750 2059 4750 
Q 2388 4750 2728 4690 
Q 3069 4631 3425 4513 
z
" id="DejaVuSans-53" transform="scale(0.015625)"/>
       <path d="M 628 4666 
L 1478 4666 
L 3547 763 
L 3547 4666 
L 4159 4666 
L 4159 0 
L 3309 0 
L 1241 3903 
L 1241 0 
L 628 0 
L 628 4666 
z
" id="DejaVuSans-4e" transform="scale(0.015625)"/>
       <path d="M 359 4666 
L 4025 4666 
L 4025 4184 
L 1075 531 
L 4097 531 
L 4097 0 
L 288 0 
L 288 481 
L 3238 4134 
L 359 4134 
L 359 4666 
z
" id="DejaVuSans-5a" transform="scale(0.015625)"/>
       <path d="M 403 4666 
L 1081 4666 
L 2241 2931 
L 3406 4666 
L 4084 4666 
L 2584 2425 
L 4184 0 
L 3506 0 
L 2194 1984 
L 872 0 
L 191 0 
L 1856 2491 
L 403 4666 
z
" id="DejaVuSans-58" transform="scale(0.015625)"/>
       <path d="M 2834 3397 
L 2834 2853 
Q 2591 2978 2328 3040 
Q 2066 3103 1784 3103 
Q 1356 3103 1142 2972 
Q 928 2841 928 2578 
Q 928 2378 1081 2264 
Q 1234 2150 1697 2047 
L 1894 2003 
Q 2506 1872 2764 1633 
Q 3022 1394 3022 966 
Q 3022 478 2636 193 
Q 2250 -91 1575 -91 
Q 1294 -91 989 -36 
Q 684 19 347 128 
L 347 722 
Q 666 556 975 473 
Q 1284 391 1588 391 
Q 1994 391 2212 530 
Q 2431 669 2431 922 
Q 2431 1156 2273 1281 
Q 2116 1406 1581 1522 
L 1381 1569 
Q 847 1681 609 1914 
Q 372 2147 372 2553 
Q 372 3047 722 3315 
Q 1072 3584 1716 3584 
Q 2034 3584 2315 3537 
Q 2597 3491 2834 3397 
z
" id="DejaVuSans-73" transform="scale(0.015625)"/>
      </defs>
      <use xlink:href="#DejaVuSans-46"/>
      <use x="55.769531" xlink:href="#DejaVuSans-53"/>
      <use x="119.246094" xlink:href="#DejaVuSans-46"/>
      <use x="176.765625" xlink:href="#DejaVuSans-20"/>
      <use x="208.552734" xlink:href="#DejaVuSans-28"/>
      <use x="247.566406" xlink:href="#DejaVuSans-4e"/>
      <use x="322.371094" xlink:href="#DejaVuSans-5a"/>
      <use x="390.876953" xlink:href="#DejaVuSans-58"/>
      <use x="454.382812" xlink:href="#DejaVuSans-2d"/>
      <use x="490.466797" xlink:href="#DejaVuSans-6c"/>
      <use x="518.25" xlink:href="#DejaVuSans-69"/>
      <use x="546.033203" xlink:href="#DejaVuSans-73"/>
      <use x="598.132812" xlink:href="#DejaVuSans-74"/>
      <use x="637.341797" xlink:href="#DejaVuSans-65"/>
      <use x="698.865234" xlink:href="#DejaVuSans-64"/>
      <use x="762.341797" xlink:href="#DejaVuSans-29"/>
     </g>
    </g>
   </g>
  </g>
  <g id="text_21">
   <!-- Price of NZX-listed Fonterra units vs Fonterra farmer-shares -->
   <g transform="translate(13.819688 16.318125)scale(0.12 -0.12)">
    <defs>
     <path d="M 1259 4147 
L 1259 2394 
L 2053 2394 
Q 2494 2394 2734 2622 
Q 2975 2850 2975 3272 
Q 2975 3691 2734 3919 
Q 2494 4147 2053 4147 
L 1259 4147 
z
M 628 4666 
L 2053 4666 
Q 2838 4666 3239 4311 
Q 3641 3956 3641 3272 
Q 3641 2581 3239 2228 
Q 2838 1875 2053 1875 
L 1259 1875 
L 1259 0 
L 628 0 
L 628 4666 
z
" id="DejaVuSans-50" transform="scale(0.015625)"/>
     <path d="M 3122 3366 
L 3122 2828 
Q 2878 2963 2633 3030 
Q 2388 3097 2138 3097 
Q 1578 3097 1268 2742 
Q 959 2388 959 1747 
Q 959 1106 1268 751 
Q 1578 397 2138 397 
Q 2388 397 2633 464 
Q 2878 531 3122 666 
L 3122 134 
Q 2881 22 2623 -34 
Q 2366 -91 2075 -91 
Q 1284 -91 818 406 
Q 353 903 353 1747 
Q 353 2603 823 3093 
Q 1294 3584 2113 3584 
Q 2378 3584 2631 3529 
Q 2884 3475 3122 3366 
z
" id="DejaVuSans-63" transform="scale(0.015625)"/>
     <path d="M 1959 3097 
Q 1497 3097 1228 2736 
Q 959 2375 959 1747 
Q 959 1119 1226 758 
Q 1494 397 1959 397 
Q 2419 397 2687 759 
Q 2956 1122 2956 1747 
Q 2956 2369 2687 2733 
Q 2419 3097 1959 3097 
z
M 1959 3584 
Q 2709 3584 3137 3096 
Q 3566 2609 3566 1747 
Q 3566 888 3137 398 
Q 2709 -91 1959 -91 
Q 1206 -91 779 398 
Q 353 888 353 1747 
Q 353 2609 779 3096 
Q 1206 3584 1959 3584 
z
" id="DejaVuSans-6f" transform="scale(0.015625)"/>
     <path d="M 2375 4863 
L 2375 4384 
L 1825 4384 
Q 1516 4384 1395 4259 
Q 1275 4134 1275 3809 
L 1275 3500 
L 2222 3500 
L 2222 3053 
L 1275 3053 
L 1275 0 
L 697 0 
L 697 3053 
L 147 3053 
L 147 3500 
L 697 3500 
L 697 3744 
Q 697 4328 969 4595 
Q 1241 4863 1831 4863 
L 2375 4863 
z
" id="DejaVuSans-66" transform="scale(0.015625)"/>
     <path d="M 544 1381 
L 544 3500 
L 1119 3500 
L 1119 1403 
Q 1119 906 1312 657 
Q 1506 409 1894 409 
Q 2359 409 2629 706 
Q 2900 1003 2900 1516 
L 2900 3500 
L 3475 3500 
L 3475 0 
L 2900 0 
L 2900 538 
Q 2691 219 2414 64 
Q 2138 -91 1772 -91 
Q 1169 -91 856 284 
Q 544 659 544 1381 
z
M 1991 3584 
L 1991 3584 
z
" id="DejaVuSans-75" transform="scale(0.015625)"/>
     <path d="M 191 3500 
L 800 3500 
L 1894 563 
L 2988 3500 
L 3597 3500 
L 2284 0 
L 1503 0 
L 191 3500 
z
" id="DejaVuSans-76" transform="scale(0.015625)"/>
     <path d="M 3513 2113 
L 3513 0 
L 2938 0 
L 2938 2094 
Q 2938 2591 2744 2837 
Q 2550 3084 2163 3084 
Q 1697 3084 1428 2787 
Q 1159 2491 1159 1978 
L 1159 0 
L 581 0 
L 581 4863 
L 1159 4863 
L 1159 2956 
Q 1366 3272 1645 3428 
Q 1925 3584 2291 3584 
Q 2894 3584 3203 3211 
Q 3513 2838 3513 2113 
z
" id="DejaVuSans-68" transform="scale(0.015625)"/>
    </defs>
    <use xlink:href="#DejaVuSans-50"/>
    <use x="58.552734" xlink:href="#DejaVuSans-72"/>
    <use x="99.666016" xlink:href="#DejaVuSans-69"/>
    <use x="127.449219" xlink:href="#DejaVuSans-63"/>
    <use x="182.429688" xlink:href="#DejaVuSans-65"/>
    <use x="243.953125" xlink:href="#DejaVuSans-20"/>
    <use x="275.740234" xlink:href="#DejaVuSans-6f"/>
    <use x="336.921875" xlink:href="#DejaVuSans-66"/>
    <use x="372.126953" xlink:href="#DejaVuSans-20"/>
    <use x="403.914062" xlink:href="#DejaVuSans-4e"/>
    <use x="478.71875" xlink:href="#DejaVuSans-5a"/>
    <use x="547.224609" xlink:href="#DejaVuSans-58"/>
    <use x="610.730469" xlink:href="#DejaVuSans-2d"/>
    <use x="646.814453" xlink:href="#DejaVuSans-6c"/>
    <use x="674.597656" xlink:href="#DejaVuSans-69"/>
    <use x="702.380859" xlink:href="#DejaVuSans-73"/>
    <use x="754.480469" xlink:href="#DejaVuSans-74"/>
    <use x="793.689453" xlink:href="#DejaVuSans-65"/>
    <use x="855.212891" xlink:href="#DejaVuSans-64"/>
    <use x="918.689453" xlink:href="#DejaVuSans-20"/>
    <use x="950.476562" xlink:href="#DejaVuSans-46"/>
    <use x="1004.371094" xlink:href="#DejaVuSans-6f"/>
    <use x="1065.552734" xlink:href="#DejaVuSans-6e"/>
    <use x="1128.931641" xlink:href="#DejaVuSans-74"/>
    <use x="1168.140625" xlink:href="#DejaVuSans-65"/>
    <use x="1229.664062" xlink:href="#DejaVuSans-72"/>
    <use x="1269.027344" xlink:href="#DejaVuSans-72"/>
    <use x="1310.140625" xlink:href="#DejaVuSans-61"/>
    <use x="1371.419922" xlink:href="#DejaVuSans-20"/>
    <use x="1403.207031" xlink:href="#DejaVuSans-75"/>
    <use x="1466.585938" xlink:href="#DejaVuSans-6e"/>
    <use x="1529.964844" xlink:href="#DejaVuSans-69"/>
    <use x="1557.748047" xlink:href="#DejaVuSans-74"/>
    <use x="1596.957031" xlink:href="#DejaVuSans-73"/>
    <use x="1649.056641" xlink:href="#DejaVuSans-20"/>
    <use x="1680.84375" xlink:href="#DejaVuSans-76"/>
    <use x="1740.023438" xlink:href="#DejaVuSans-73"/>
    <use x="1792.123047" xlink:href="#DejaVuSans-20"/>
    <use x="1823.910156" xlink:href="#DejaVuSans-46"/>
    <use x="1877.804688" xlink:href="#DejaVuSans-6f"/>
    <use x="1938.986328" xlink:href="#DejaVuSans-6e"/>
    <use x="2002.365234" xlink:href="#DejaVuSans-74"/>
    <use x="2041.574219" xlink:href="#DejaVuSans-65"/>
    <use x="2103.097656" xlink:href="#DejaVuSans-72"/>
    <use x="2142.460938" xlink:href="#DejaVuSans-72"/>
    <use x="2183.574219" xlink:href="#DejaVuSans-61"/>
    <use x="2244.853516" xlink:href="#DejaVuSans-20"/>
    <use x="2276.640625" xlink:href="#DejaVuSans-66"/>
    <use x="2311.845703" xlink:href="#DejaVuSans-61"/>
    <use x="2373.125" xlink:href="#DejaVuSans-72"/>
    <use x="2412.488281" xlink:href="#DejaVuSans-6d"/>
    <use x="2509.900391" xlink:href="#DejaVuSans-65"/>
    <use x="2571.423828" xlink:href="#DejaVuSans-72"/>
    <use x="2606.162109" xlink:href="#DejaVuSans-2d"/>
    <use x="2642.246094" xlink:href="#DejaVuSans-73"/>
    <use x="2694.345703" xlink:href="#DejaVuSans-68"/>
    <use x="2757.724609" xlink:href="#DejaVuSans-61"/>
    <use x="2819.003906" xlink:href="#DejaVuSans-72"/>
    <use x="2857.867188" xlink:href="#DejaVuSans-65"/>
    <use x="2919.390625" xlink:href="#DejaVuSans-73"/>
   </g>
  </g>
 </g>
 <defs>
  <clipPath id="p1634fb1be9">
   <rect height="195.84" width="334.8" x="30.103125" y="36"/>
  </clipPath>
 </defs>
</svg>
